<svg width="21" height="20" viewBox="0 0 21 20" fill="none" xmlns="http://www.w3.org/2000/svg">
<path d="M8.5 1C8.5 0.734784 8.60536 0.48043 8.79289 0.292893C8.98043 0.105357 9.23478 0 9.5 0C9.76522 0 10.0196 0.105357 10.2071 0.292893C10.3946 0.48043 10.5 0.734784 10.5 1H15.48C15.8429 1.00011 16.199 1.09898 16.51 1.286L19.363 3C19.7082 3.20734 19.9939 3.50051 20.1922 3.85098C20.3906 4.20146 20.4948 4.5973 20.4948 5C20.4948 5.4027 20.3906 5.79854 20.1922 6.14902C19.9939 6.49949 19.7082 6.79266 19.363 7L16.51 8.714C16.199 8.90102 15.8429 8.99989 15.48 9H10.5V10H18.495C19.0254 10 19.5341 10.2107 19.9092 10.5858C20.2843 10.9609 20.495 11.4696 20.495 12V16C20.495 16.5304 20.2843 17.0391 19.9092 17.4142C19.5341 17.7893 19.0254 18 18.495 18H10.5V19C10.5 19.2652 10.3946 19.5196 10.2071 19.7071C10.0196 19.8946 9.76522 20 9.5 20C9.23478 20 8.98043 19.8946 8.79289 19.7071C8.60536 19.5196 8.5 19.2652 8.5 19V18H5.515C5.15208 17.9999 4.79602 17.901 4.485 17.714L1.632 16C1.28678 15.7927 1.00111 15.4995 0.802773 15.149C0.60444 14.7985 0.500203 14.4027 0.500203 14C0.500203 13.5973 0.60444 13.2015 0.802773 12.851C1.00111 12.5005 1.28678 12.2073 1.632 12L4.485 10.286C4.79602 10.099 5.15208 10.0001 5.515 10H8.5V9H2.5C1.96957 9 1.46086 8.78929 1.08579 8.41421C0.710714 8.03914 0.5 7.53043 0.5 7V3C0.5 2.46957 0.710714 1.96086 1.08579 1.58579C1.46086 1.21071 1.96957 1 2.5 1H8.5Z" fill="#019C39"/>
</svg>
