<svg width="21" height="21" viewBox="0 0 21 21" fill="none" xmlns="http://www.w3.org/2000/svg">
<path d="M9.5 13.3579H9.449C9.19731 13.3579 8.95593 13.2579 8.77796 13.08C8.59998 12.902 8.5 12.6606 8.5 12.4089C8.5 12.1437 8.39464 11.8893 8.20711 11.7018C8.01957 11.5143 7.76522 11.4089 7.5 11.4089C7.23478 11.4089 6.98043 11.5143 6.79289 11.7018C6.60536 11.8893 6.5 12.1437 6.5 12.4089C6.5 13.191 6.8107 13.9411 7.36374 14.4942C7.91679 15.0472 8.66688 15.3579 9.449 15.3579H9.5V16.3579C9.5 16.6231 9.60536 16.8775 9.79289 17.065C9.98043 17.2526 10.2348 17.3579 10.5 17.3579C10.7652 17.3579 11.0196 17.2526 11.2071 17.065C11.3946 16.8775 11.5 16.6231 11.5 16.3579V15.3579C12.2956 15.3579 13.0587 15.0418 13.6213 14.4792C14.1839 13.9166 14.5 13.1536 14.5 12.3579C14.5 11.5623 14.1839 10.7992 13.6213 10.2366C13.0587 9.67398 12.2956 9.35791 11.5 9.35791V7.35791H11.522C12.062 7.35791 12.5 7.79591 12.5 8.33591C12.5 8.60113 12.6054 8.85548 12.7929 9.04302C12.9804 9.23055 13.2348 9.33591 13.5 9.33591C13.7652 9.33591 14.0196 9.23055 14.2071 9.04302C14.3946 8.85548 14.5 8.60113 14.5 8.33591C14.5 7.5461 14.1862 6.78863 13.6278 6.23015C13.0693 5.67166 12.3118 5.35791 11.522 5.35791H11.5V4.35791C11.5 4.09269 11.3946 3.83834 11.2071 3.6508C11.0196 3.46327 10.7652 3.35791 10.5 3.35791C10.2348 3.35791 9.98043 3.46327 9.79289 3.6508C9.60536 3.83834 9.5 4.09269 9.5 4.35791V5.35791C9.10603 5.35791 8.71593 5.43551 8.35195 5.58627C7.98797 5.73704 7.65726 5.95801 7.37868 6.23659C7.1001 6.51517 6.87913 6.84588 6.72836 7.20986C6.5776 7.57384 6.5 7.96394 6.5 8.35791C6.5 8.75188 6.5776 9.14198 6.72836 9.50596C6.87913 9.86994 7.1001 10.2007 7.37868 10.4792C7.65726 10.7578 7.98797 10.9788 8.35195 11.1295C8.71593 11.2803 9.10603 11.3579 9.5 11.3579V13.3579ZM11.5 13.3579V11.3579C11.7652 11.3579 12.0196 11.4633 12.2071 11.6508C12.3946 11.8383 12.5 12.0927 12.5 12.3579C12.5 12.6231 12.3946 12.8775 12.2071 13.065C12.0196 13.2526 11.7652 13.3579 11.5 13.3579ZM9.5 7.35791V9.35791C9.23478 9.35791 8.98043 9.25255 8.79289 9.06502C8.60536 8.87748 8.5 8.62313 8.5 8.35791C8.5 8.09269 8.60536 7.83834 8.79289 7.6508C8.98043 7.46327 9.23478 7.35791 9.5 7.35791ZM10.5 20.3579C4.977 20.3579 0.5 15.8809 0.5 10.3579C0.5 4.83491 4.977 0.35791 10.5 0.35791C16.023 0.35791 20.5 4.83491 20.5 10.3579C20.5 15.8809 16.023 20.3579 10.5 20.3579Z" fill="#019C39"/>
</svg>
