<svg width="78" height="64" viewBox="0 0 78 64" fill="none" xmlns="http://www.w3.org/2000/svg">
<path d="M77.9363 32.9808C77.915 33.0876 77.8938 33.1945 77.8725 33.3013C77.8725 33.3868 77.8725 33.483 77.8725 33.5899L77.6813 34.2631C77.6388 34.3486 77.6069 34.402 77.5857 34.4234L77.4901 34.6157C77.3838 34.8508 77.1926 35.0431 76.9164 35.1927C76.4065 35.4492 75.8647 35.5133 75.291 35.3851C74.9298 35.3423 74.643 35.2355 74.4305 35.0645C74.218 34.9149 74.0693 34.7332 73.9843 34.5195C73.8993 34.3058 73.8356 34.0921 73.7931 33.8784C73.7293 33.6647 73.6975 33.4723 73.6975 33.3013V15.3491C73.6975 15.1995 73.6975 15.0712 73.6975 14.9644C73.7187 14.8361 73.74 14.7186 73.7612 14.6117C73.7825 14.4621 73.8037 14.3339 73.825 14.227C73.8674 14.1202 73.9099 14.0026 73.9524 13.8744C74.0162 13.6607 74.133 13.4897 74.303 13.3615C74.558 13.1691 74.8023 13.0623 75.036 13.0409C75.1848 12.9982 75.3229 12.9768 75.4504 12.9768C75.5778 12.9554 75.7266 12.9447 75.8965 12.9447C76.194 12.9447 76.534 13.0302 76.9164 13.2012C77.2139 13.3722 77.4263 13.6073 77.5538 13.9065C77.7663 14.3339 77.8725 14.7293 77.8725 15.0926C77.8938 15.3063 77.9044 15.6269 77.9044 16.0543C77.9256 16.4818 77.9363 16.8023 77.9363 17.0161V17.1443C77.9788 17.8282 78 18.4907 78 19.1319C78 19.7516 77.9894 20.4355 77.9681 21.1835C77.9681 21.9102 77.9575 22.6155 77.9363 23.2994C77.9363 23.9619 77.9363 24.6244 77.9363 25.2869V32.019C77.9363 32.1045 77.9363 32.19 77.9363 32.2755C77.9575 32.3396 77.9681 32.4144 77.9681 32.4999C77.9681 32.7136 77.9575 32.8739 77.9363 32.9808Z" fill="white"/>
<path d="M70.8243 23.3955C70.8243 23.9939 70.8243 24.6672 70.8243 25.4152C70.8455 26.1632 70.8562 26.9432 70.8562 27.7554C70.8562 28.5461 70.8562 29.3369 70.8562 30.1276C70.8562 30.897 70.8455 31.613 70.8243 32.2755C70.803 32.5961 70.7712 32.9487 70.7287 33.3334C70.6862 33.6967 70.6012 34.0387 70.4737 34.3592C70.3462 34.6798 70.1444 34.947 69.8682 35.1607C69.6132 35.353 69.2626 35.4385 68.8164 35.4171C68.1578 35.3744 67.6797 35.0859 67.3823 34.5516C67.106 34.0173 66.9467 33.2693 66.9042 32.3076C66.9042 31.816 66.8936 31.2497 66.8723 30.6085C66.8723 29.9673 66.8617 29.3155 66.8405 28.653C66.8405 27.9905 66.8405 27.3493 66.8405 26.7295C66.8405 26.0884 66.8405 25.5113 66.8405 24.9984C66.8405 24.6992 66.8298 24.3359 66.8086 23.9085C66.8086 23.481 66.8192 23.0429 66.8405 22.5941C66.8617 22.1453 66.9148 21.7178 66.9998 21.3118C67.0848 20.8843 67.2229 20.5317 67.4141 20.2539C67.5629 20.0829 67.7753 19.9547 68.0515 19.8692C68.3278 19.7623 68.6146 19.7089 68.912 19.7089C69.2308 19.7089 69.5282 19.7623 69.8044 19.8692C70.1019 19.976 70.3144 20.1257 70.4418 20.318C70.5268 20.4462 70.5906 20.6279 70.6331 20.863C70.6756 21.0981 70.7074 21.3652 70.7287 21.6644C70.7712 21.9423 70.7924 22.2415 70.7924 22.562C70.8137 22.8612 70.8243 23.1391 70.8243 23.3955ZM69.6132 16.9199C68.9545 17.0909 68.4021 17.0267 67.9559 16.7275C67.531 16.407 67.2654 15.9368 67.1592 15.317C67.0742 14.8682 67.1061 14.4728 67.2548 14.1309C67.4035 13.7889 67.6266 13.5325 67.9241 13.3615C68.2215 13.1691 68.5615 13.0837 68.9439 13.105C69.3264 13.1264 69.7088 13.276 70.0913 13.5538C70.4525 13.8103 70.7074 14.1095 70.8562 14.4514C71.0261 14.7934 71.0793 15.1247 71.0155 15.4452C70.973 15.7658 70.8349 16.065 70.6012 16.3428C70.3675 16.5993 70.0381 16.7917 69.6132 16.9199Z" fill="white"/>
<path d="M59.8757 29.9032C59.472 29.6468 59.0152 29.4437 58.5053 29.2941C58.0166 29.1445 57.5067 29.0056 56.9755 28.8774C56.4656 28.7492 55.9663 28.6102 55.4776 28.4606C54.9889 28.2897 54.5427 28.0546 54.139 27.7554C53.2679 27.0928 52.758 26.2807 52.6092 25.319C52.4818 24.3359 52.6942 23.3528 53.2467 22.3697C53.5441 21.8568 53.9372 21.44 54.4259 21.1194C54.9146 20.7775 55.4457 20.521 56.0194 20.35C56.6143 20.1577 57.2199 20.0508 57.836 20.0295C58.4522 20.0081 59.0365 20.0402 59.5889 20.1256C59.9501 20.1898 60.3326 20.2859 60.7363 20.4142C61.1399 20.521 61.5118 20.6706 61.8517 20.863C62.2129 21.0553 62.5316 21.3011 62.8078 21.6003C63.1053 21.8781 63.3178 22.2308 63.4453 22.6582C63.5302 22.936 63.5409 23.2032 63.4771 23.4596C63.4346 23.7161 63.3284 23.9298 63.1584 24.1008C63.0097 24.2718 62.8078 24.4 62.5529 24.4855C62.3192 24.571 62.0642 24.5923 61.788 24.5496C61.4693 24.4855 61.1718 24.3893 60.8956 24.2611C60.6194 24.1329 60.3432 23.9939 60.067 23.8443C59.7908 23.6947 59.5039 23.5665 59.2065 23.4596C58.9302 23.3528 58.6328 23.2994 58.3141 23.2994C57.8254 23.278 57.4217 23.3635 57.103 23.5558C56.7843 23.7482 56.5612 23.9832 56.4337 24.2611C56.3275 24.5389 56.3381 24.8381 56.4656 25.1587C56.6143 25.4793 56.9118 25.7571 57.358 25.9922C57.7617 26.2059 58.2078 26.3769 58.6965 26.5051C59.1852 26.6333 59.6633 26.7616 60.1307 26.8898C60.6194 27.018 61.0868 27.1676 61.533 27.3386C62.0005 27.5096 62.4148 27.7447 62.776 28.0439C63.4771 28.6209 63.9021 29.2941 64.0508 30.0635C64.2208 30.8329 64.1783 31.5916 63.9233 32.3396C63.6683 33.0876 63.2222 33.7501 62.5847 34.3272C61.9686 34.9042 61.2356 35.2889 60.3857 35.4813C59.7695 35.6095 59.1002 35.6736 58.3778 35.6736C57.6767 35.6736 56.9755 35.5988 56.2744 35.4492C55.5945 35.2996 54.9358 35.0645 54.2984 34.7439C53.6822 34.4234 53.1617 34.0173 52.7367 33.5257C52.4393 33.1838 52.2799 32.7991 52.2587 32.3717C52.2587 31.9229 52.3437 31.5382 52.5136 31.2176C52.7049 30.8756 52.9704 30.6406 53.3104 30.5123C53.6504 30.3841 54.0328 30.4589 54.4577 30.7367C54.7977 30.9718 55.2014 31.2069 55.6688 31.442C56.1363 31.6557 56.6037 31.8267 57.0711 31.9549C57.5386 32.0831 57.9848 32.1473 58.4097 32.1473C58.8559 32.1473 59.2383 32.0511 59.557 31.8587C60.0245 31.5595 60.2688 31.2176 60.2901 30.8329C60.3113 30.4268 60.1732 30.1169 59.8757 29.9032Z" fill="white"/>
<path d="M37.5944 22.0491C38.2319 21.7285 38.9011 21.5041 39.6023 21.3759C40.3034 21.2263 40.994 21.1942 41.6739 21.2797C42.375 21.3438 43.0443 21.5255 43.6817 21.8247C44.3191 22.1025 44.9141 22.5086 45.4665 23.0429C46.0189 23.5986 46.4438 24.2076 46.7413 24.8702C47.0388 25.5327 47.2512 26.27 47.3787 27.0821C47.4637 27.6378 47.6018 28.1507 47.793 28.6209C47.9843 29.0911 48.1861 29.5613 48.3986 30.0315C48.6323 30.5016 48.8448 30.9718 49.036 31.442C49.2485 31.9122 49.4184 32.4037 49.5459 32.9166C49.6521 33.4082 49.6096 33.8891 49.4184 34.3592C49.2485 34.808 48.8872 35.0859 48.3348 35.1927C48.0161 35.2568 47.708 35.2355 47.4106 35.1286C47.1344 35.0004 46.8794 34.8294 46.6457 34.6157C46.412 34.3806 46.1995 34.1348 46.0083 33.8784C45.8383 33.6005 45.6789 33.3441 45.5302 33.109C45.0415 33.7501 44.5104 34.2524 43.9367 34.6157C43.363 34.9576 42.6725 35.182 41.8651 35.2889C41.1852 35.3744 40.5372 35.3958 39.921 35.353C39.3048 35.3103 38.6462 35.1927 37.945 35.0004C37.0314 34.7653 36.2771 34.3592 35.6822 33.7822C35.1085 33.1838 34.6623 32.4999 34.3436 31.7305C34.0462 30.9398 33.8868 30.0956 33.8656 29.198C33.8443 28.3003 33.9506 27.4134 34.1843 26.5372C34.4818 25.3831 34.9279 24.4427 35.5229 23.7161C36.1178 22.9895 36.8083 22.4338 37.5944 22.0491ZM38.3912 25.7998C38.0938 26.099 37.86 26.4517 37.6901 26.8577C37.5201 27.2638 37.4138 27.6912 37.3713 28.1401C37.3501 28.5889 37.3926 29.0377 37.4988 29.4865C37.6051 29.9353 37.775 30.3307 38.0088 30.6726C38.2212 30.9718 38.5824 31.2283 39.0924 31.442C39.6023 31.6343 40.1335 31.7519 40.6859 31.7946C41.3233 31.8374 41.8757 31.6664 42.3432 31.2817C42.8318 30.897 43.193 30.4161 43.4268 29.8391C43.6817 29.2407 43.7986 28.6102 43.7773 27.9477C43.7561 27.2638 43.5755 26.644 43.2355 26.0884C42.9806 25.6823 42.6406 25.3831 42.2157 25.1907C41.812 24.9984 41.3764 24.9022 40.909 24.9022C40.4415 24.8809 39.9741 24.9557 39.5067 25.1266C39.0605 25.2762 38.6887 25.5006 38.3912 25.7998Z" fill="white"/>
<path d="M18.2425 24.197C18.2425 23.9405 18.2425 23.652 18.2425 23.3314C18.2425 22.9895 18.2531 22.6475 18.2743 22.3056C18.2956 21.9423 18.3275 21.6003 18.3699 21.2797C18.4337 20.9378 18.5187 20.6386 18.6249 20.3821C18.7949 19.9974 19.0605 19.741 19.4217 19.6127C19.7829 19.4631 20.1759 19.399 20.6009 19.4204C21.0471 19.4204 21.3977 19.4952 21.6526 19.6448C21.9076 19.7944 22.0988 19.9974 22.2263 20.2539C22.3538 20.489 22.4281 20.7668 22.4494 21.0874C22.4919 21.3866 22.5131 21.7072 22.5131 22.0491C22.7043 21.7072 22.9593 21.4293 23.278 21.2156C23.618 21.0019 23.9579 20.8309 24.2979 20.7027C24.6378 20.5745 24.9459 20.489 25.2221 20.4462C25.4983 20.3821 25.6577 20.3501 25.7002 20.3501C26.2314 20.3073 26.7094 20.2966 27.1344 20.318C27.5805 20.3394 28.0692 20.4355 28.6004 20.6065C28.9404 20.7348 29.2909 20.9164 29.6521 21.1515C30.0133 21.3652 30.332 21.6217 30.6083 21.9209C30.8845 22.2201 31.0651 22.5513 31.15 22.9147C31.2563 23.2566 31.2138 23.6199 31.0226 24.0046C30.7251 24.5389 30.3958 24.8061 30.0346 24.8061C29.6734 24.7847 29.2803 24.7206 28.8554 24.6137C28.6216 24.571 28.3454 24.4748 28.0267 24.3252C27.708 24.1756 27.4318 24.0794 27.1981 24.0367C26.4757 23.9298 25.8383 23.9833 25.2859 24.197C24.7334 24.4107 24.2554 24.6672 23.8517 24.9664C23.3843 25.3297 22.9806 25.7464 22.6406 26.2166V30.8329C22.6406 31.4099 22.63 32.0084 22.6087 32.6281C22.6087 33.2479 22.5237 33.8143 22.3538 34.3272C22.205 34.8187 21.9394 35.2248 21.557 35.5454C21.1958 35.8446 20.6646 35.9728 19.9635 35.9301C19.581 35.9087 19.2411 35.727 18.9436 35.3851C18.6462 35.0218 18.4656 34.6691 18.4018 34.3272C18.3593 34.0066 18.3275 33.6219 18.3062 33.1731C18.285 32.7243 18.2637 32.2541 18.2425 31.7626C18.2425 31.271 18.2425 30.7795 18.2425 30.2879C18.2425 29.775 18.2425 29.3048 18.2425 28.8774V24.197Z" fill="white"/>
<path d="M12.557 23.7161C13.1732 24.1222 13.6937 24.603 14.1187 25.1587C14.5649 25.693 14.9154 26.3555 15.1704 27.1463C15.4466 28.0225 15.5847 28.9094 15.5847 29.8071C15.606 30.6833 15.4466 31.5061 15.1067 32.2755C14.788 33.0235 14.2674 33.686 13.545 34.2631C12.8438 34.8187 11.9196 35.2141 10.7723 35.4492C10.1561 35.5988 9.43369 35.7164 8.60506 35.8018C7.77642 35.8873 7.03278 35.9301 6.37412 35.9301C5.54548 35.9514 4.68498 35.9514 3.7926 35.9301C2.92147 35.9301 2.07159 35.8446 1.24295 35.6736C0.881753 35.5668 0.616165 35.3851 0.446188 35.1286C0.297459 34.8508 0.191224 34.5409 0.127482 34.199C0.0424942 34.0066 2.28675e-10 33.8143 2.28675e-10 33.6219V15.4132C2.28675e-10 14.8148 0.116859 14.3553 0.350576 14.0347C0.605541 13.6928 0.93487 13.447 1.33856 13.2974C1.74226 13.1264 2.19907 13.0302 2.709 13.0089C3.21893 12.9661 3.75011 12.9447 4.30253 12.9447C4.72747 12.9447 5.15241 12.9447 5.57735 12.9447C6.02354 12.9234 6.46973 12.9234 6.91592 12.9447C7.61707 12.9661 8.33947 13.0302 9.08312 13.1371C9.84801 13.2226 10.5704 13.3935 11.2503 13.65C11.569 13.7569 11.909 13.9065 12.2702 14.0988C12.6314 14.2698 12.9182 14.4835 13.1307 14.74C13.8106 15.3598 14.3099 16.0864 14.6286 16.9199C14.9685 17.732 15.1173 18.5655 15.0748 19.4204C15.0323 20.2539 14.7986 21.0553 14.3736 21.8247C13.9699 22.5941 13.3644 23.2246 12.557 23.7161ZM6.97966 32.2114C7.63832 32.1686 8.3076 32.0938 8.9875 31.987C9.66741 31.8801 10.1348 31.6771 10.3898 31.3779C10.666 31.0359 10.8572 30.6406 10.9635 30.1918C11.091 29.7216 11.1228 29.2514 11.0591 28.7812C11.0166 28.2897 10.8785 27.8302 10.6448 27.4027C10.4323 26.9539 10.1455 26.6013 9.78427 26.3448C9.29559 25.9601 8.73254 25.7144 8.09513 25.6075C7.45772 25.4793 6.83093 25.4152 6.21476 25.4152C5.9173 25.4152 5.64109 25.4258 5.38613 25.4472C5.15241 25.4472 4.93994 25.4793 4.74872 25.5434C4.57874 25.5861 4.45126 25.6823 4.36627 25.8319C4.28128 25.9815 4.23879 26.2059 4.23879 26.5051C4.28128 27.0608 4.28128 27.6165 4.23879 28.1721C4.19629 28.7278 4.17505 29.2621 4.17505 29.775C4.17505 30.0742 4.16442 30.4055 4.14318 30.7688C4.14318 31.1107 4.26003 31.3993 4.49375 31.6343C4.72747 31.8694 5.06742 32.0297 5.51361 32.1152C5.9598 32.2007 6.44848 32.2328 6.97966 32.2114ZM7.61707 16.8237C6.95841 16.8023 6.40599 16.7917 5.9598 16.7917C5.53486 16.7703 5.19491 16.8023 4.93994 16.8878C4.70622 16.9519 4.53625 17.1122 4.43001 17.3687C4.34502 17.6038 4.31315 17.9671 4.3344 18.4587C4.3344 18.8647 4.32378 19.2708 4.30253 19.6768C4.30253 20.0615 4.30253 20.4462 4.30253 20.8309C4.30253 21.2584 4.44063 21.5789 4.71685 21.7927C4.99306 21.985 5.33301 22.1025 5.7367 22.1453C6.16165 22.188 6.59721 22.188 7.0434 22.1453C7.51083 22.1025 7.91453 22.0491 8.25448 21.985C9.01937 21.8568 9.60367 21.6003 10.0074 21.2156C10.4323 20.8095 10.6766 20.2218 10.7404 19.4524C10.8254 18.4907 10.5704 17.8282 9.97549 17.4649C9.40182 17.0802 8.61568 16.8665 7.61707 16.8237Z" fill="white"/>
<path fill-rule="evenodd" clip-rule="evenodd" d="M47.0307 10.1238C46.7674 9.95388 46.7728 9.67494 47.0307 9.50854L55.6903 3.92067C55.9536 3.75078 56.3859 3.75428 56.6438 3.92067L65.3034 9.50854C65.5667 9.67843 65.5613 9.95737 65.3034 10.1238L56.6438 15.7116C56.3805 15.8815 55.9482 15.878 55.6903 15.7116L47.0307 10.1238Z" fill="#FDD216"/>
<path d="M29.3849 38.62C29.6758 38.4781 29.9799 38.3761 30.2972 38.3141C30.6146 38.252 30.9275 38.2387 31.2361 38.2742C31.5534 38.3096 31.8575 38.3939 32.1484 38.5269C32.4482 38.6599 32.7214 38.8461 32.9683 39.0855C33.171 39.2894 33.3473 39.5377 33.4972 39.8303C33.647 40.1141 33.7572 40.3934 33.8277 40.6682C33.9776 41.1559 33.9996 41.648 33.8938 42.1446C33.7881 42.6411 33.6074 43.1022 33.3517 43.5278C33.2283 43.7229 33.074 43.9002 32.8889 44.0598C32.7126 44.2106 32.5231 44.3347 32.3203 44.4323C32.0559 44.5564 31.7694 44.6406 31.4609 44.685C31.1523 44.7382 30.8526 44.7515 30.5617 44.7249C30.0328 44.6983 29.5656 44.5653 29.1601 44.3259C28.7634 44.0865 28.4416 43.7805 28.1948 43.4081C27.9568 43.0357 27.7981 42.6145 27.7188 42.1446C27.6483 41.6658 27.6791 41.1781 27.8114 40.6815C27.9524 40.1495 28.1552 39.7195 28.4196 39.3914C28.6929 39.0545 29.0146 38.7973 29.3849 38.62ZM29.7816 40.4022C29.6493 40.5264 29.548 40.6815 29.4774 40.8678C29.4069 41.054 29.3628 41.249 29.3452 41.453C29.3276 41.648 29.3408 41.8475 29.3849 42.0515C29.4378 42.2466 29.5171 42.4239 29.6229 42.5835C29.711 42.7165 29.8697 42.8273 30.0989 42.916C30.3281 43.0047 30.5661 43.0579 30.8129 43.0756C31.095 43.0934 31.3419 43.018 31.5534 42.8495C31.765 42.6722 31.9237 42.4549 32.0294 42.1978C32.144 41.9407 32.1969 41.6613 32.1881 41.3599C32.1793 41.0584 32.1 40.7835 31.9501 40.5352C31.8443 40.3579 31.6945 40.2293 31.5005 40.1495C31.3154 40.0609 31.1171 40.0165 30.9055 40.0165C30.7027 40.0077 30.5 40.0387 30.2972 40.1096C30.0945 40.1717 29.9226 40.2692 29.7816 40.4022Z" fill="#FF0000"/>
<path d="M21.6204 39.0323C21.8849 38.8993 22.1625 38.8062 22.4534 38.753C22.7443 38.6909 23.0308 38.6776 23.3129 38.7131C23.6038 38.7397 23.8815 38.8151 24.146 38.9392C24.4104 39.0545 24.6572 39.2229 24.8864 39.4446C25.1156 39.6752 25.2919 39.9279 25.4153 40.2027C25.5388 40.4776 25.6269 40.7835 25.6798 41.1205C25.7151 41.351 25.7724 41.5638 25.8517 41.7589C25.931 41.954 26.0148 42.149 26.1029 42.3441C26.1999 42.5392 26.2881 42.7343 26.3674 42.9293C26.4555 43.1244 26.5261 43.3283 26.579 43.5411C26.623 43.7451 26.6054 43.9446 26.5261 44.1397C26.4555 44.3259 26.3057 44.4411 26.0765 44.4855C25.9443 44.5121 25.8164 44.5032 25.693 44.4589C25.5784 44.4057 25.4726 44.3347 25.3757 44.2461C25.2787 44.1485 25.1906 44.0466 25.1112 43.9402C25.0407 43.8249 24.9746 43.7185 24.9129 43.621C24.7101 43.887 24.4898 44.0953 24.2517 44.2461C24.0137 44.3879 23.7272 44.481 23.3923 44.5254C23.1102 44.5608 22.8413 44.5697 22.5857 44.552C22.33 44.5342 22.0568 44.4855 21.7659 44.4057C21.3868 44.3081 21.0739 44.1397 20.827 43.9003C20.589 43.652 20.4039 43.3682 20.2717 43.049C20.1483 42.721 20.0821 42.3707 20.0733 41.9983C20.0645 41.6259 20.1086 41.2579 20.2056 40.8944C20.329 40.4156 20.5141 40.0254 20.7609 39.7239C21.0077 39.4225 21.2942 39.1919 21.6204 39.0323ZM21.951 40.5885C21.8276 40.7126 21.7306 40.8589 21.6601 41.0274C21.5896 41.1958 21.5455 41.3732 21.5278 41.5594C21.519 41.7456 21.5367 41.9318 21.5807 42.118C21.6248 42.3042 21.6953 42.4683 21.7923 42.6101C21.8805 42.7343 22.0303 42.8407 22.2419 42.9293C22.4534 43.0091 22.6738 43.0579 22.903 43.0756C23.1675 43.0934 23.3967 43.0224 23.5906 42.8628C23.7934 42.7032 23.9432 42.5037 24.0402 42.2643C24.146 42.016 24.1944 41.7545 24.1856 41.4796C24.1768 41.1958 24.1019 40.9387 23.9608 40.7082C23.8551 40.5397 23.714 40.4156 23.5377 40.3358C23.3702 40.2559 23.1895 40.216 22.9956 40.216C22.8016 40.2072 22.6077 40.2382 22.4138 40.3092C22.2287 40.3712 22.0744 40.4643 21.951 40.5885Z" fill="#FF0000"/>
<path d="M75.3457 59.3928C75.5912 59.3311 75.8367 59.29 76.0822 59.2694C76.3482 59.2488 76.5835 59.2797 76.7881 59.362C77.0131 59.4443 77.1973 59.5884 77.3405 59.7941C77.4837 59.9794 77.5553 60.2469 77.5553 60.5967C77.5553 60.8437 77.4939 61.0803 77.3711 61.3067C77.2484 61.5331 77.0949 61.7389 76.9108 61.9241C76.7267 62.1093 76.5221 62.2739 76.2971 62.418C76.072 62.5415 75.8572 62.6444 75.6526 62.7267C75.0593 62.9942 74.3739 63.2 73.5965 63.344C72.8395 63.4881 72.0518 63.5395 71.2334 63.4984C70.1287 63.4572 69.0648 63.2411 68.0418 62.8501C67.0394 62.4386 66.2517 61.7697 65.6788 60.8437C65.1469 59.9382 64.8298 58.9298 64.7275 57.8185C64.6252 56.7073 64.6763 55.6577 64.8809 54.6699C65.106 53.4764 65.4845 52.5091 66.0164 51.7683C66.5688 51.0069 67.2235 50.3998 67.9805 49.947C68.9011 49.412 69.9343 49.1342 71.08 49.1136C72.2257 49.093 73.3203 49.3194 74.3637 49.7927C75.0593 50.1014 75.6833 50.5233 76.2357 51.0583C76.7881 51.5728 77.2075 52.2005 77.4939 52.9413C77.5757 53.1265 77.6371 53.3529 77.678 53.6204C77.7394 53.8879 77.7803 54.176 77.8008 54.4847C77.8213 54.7728 77.8213 55.061 77.8008 55.3491C77.7803 55.6372 77.7292 55.8944 77.6473 56.1208C77.5246 56.4912 77.3711 56.7793 77.187 56.9851C77.0029 57.1909 76.7676 57.3452 76.4812 57.4481C76.1948 57.551 75.847 57.623 75.4378 57.6642C75.049 57.6848 74.5785 57.7054 74.0261 57.7259C73.5351 57.7465 73.0748 57.7568 72.6451 57.7568C72.2155 57.7568 71.7756 57.7568 71.3255 57.7568C70.8754 57.7362 70.4049 57.7259 69.9138 57.7259C69.4433 57.7054 68.9113 57.6848 68.318 57.6642C68.2567 58.0758 68.3078 58.4359 68.4715 58.7446C68.6556 59.0327 68.9011 59.2797 69.208 59.4855C69.5149 59.6707 69.8627 59.8147 70.2514 59.9176C70.6401 60.0205 71.0186 60.0823 71.3869 60.1028C72.0825 60.144 72.7474 60.0925 73.3816 59.9485C74.0159 59.7839 74.6706 59.5986 75.3457 59.3928ZM74.0261 53.4043C73.6374 52.9516 73.2282 52.6223 72.7986 52.4165C72.4712 52.2725 72.1234 52.2107 71.7551 52.2313C71.4073 52.2313 71.0698 52.2828 70.7424 52.3857C70.1491 52.5297 69.6479 52.8384 69.2387 53.3117C69.1978 53.3529 69.1262 53.4558 69.0239 53.6204C68.9216 53.7645 68.8193 53.9188 68.717 54.0834C68.6351 54.2481 68.5738 54.4024 68.5329 54.5465C68.4919 54.6905 68.5124 54.7626 68.5942 54.7626H74.6092C74.5887 54.4744 74.5376 54.2378 74.4557 54.0526C74.3739 53.8468 74.2307 53.6307 74.0261 53.4043Z" fill="white"/>
<path d="M63.3564 50.0088C63.52 50.3998 63.5303 50.8319 63.3871 51.3053C63.2643 51.7786 63.029 52.0873 62.6812 52.2313C62.4971 52.3136 62.2516 52.3857 61.9447 52.4474C61.6378 52.4886 61.3002 52.5297 60.932 52.5709C60.5842 52.612 60.2364 52.6429 59.8886 52.6635C59.5408 52.6841 59.2441 52.6944 58.9986 52.6944C59.0191 53.3117 59.0395 53.9497 59.06 54.6082C59.0804 55.2462 59.1009 55.8738 59.1213 56.4912C59.1418 57.1086 59.152 57.7054 59.152 58.2816C59.152 58.8372 59.1418 59.3414 59.1213 59.7941C59.1213 60.1028 59.1213 60.463 59.1213 60.8745C59.1213 61.2655 59.0907 61.6463 59.0293 62.0167C58.9884 62.3871 58.9168 62.7164 58.8145 63.0045C58.7122 63.272 58.5587 63.4469 58.3541 63.5292C57.7199 63.7968 57.1368 63.8688 56.6049 63.7453C56.0934 63.6424 55.7251 63.4263 55.5001 63.0971C55.3364 62.8296 55.2137 62.5209 55.1318 62.171C55.05 61.8006 54.9886 61.4302 54.9477 61.0597C54.9272 60.6687 54.917 60.2983 54.917 59.9485C54.9375 59.5781 54.9477 59.2591 54.9477 58.9916C54.9682 58.1272 54.9784 57.1497 54.9784 56.059C54.9989 54.9478 55.0091 53.8365 55.0091 52.7252H54.5488C54.3032 52.7252 53.9861 52.7252 53.5974 52.7252C53.2292 52.7046 52.8507 52.6738 52.4619 52.6326C52.0937 52.5709 51.7459 52.4988 51.4185 52.4165C51.0912 52.3136 50.8559 52.1696 50.7127 51.9844C50.4876 51.7168 50.3444 51.4287 50.2831 51.12C50.2421 50.8114 50.2626 50.5233 50.3444 50.2557C50.4467 49.9676 50.6002 49.7207 50.8048 49.5149C51.0093 49.2885 51.2446 49.1445 51.5106 49.0827C51.8789 48.9798 52.4006 48.9284 53.0757 48.9284C53.7509 48.9078 54.3851 48.9078 54.9784 48.9284C54.9579 48.7226 54.9477 48.5271 54.9477 48.3419C54.9477 48.1361 54.9375 47.9406 54.917 47.7554C54.8966 47.5084 54.8863 47.1997 54.8863 46.8293C54.8863 46.4383 54.9068 46.0576 54.9477 45.6872C55.0091 45.2962 55.1012 44.936 55.2239 44.6068C55.3467 44.2569 55.5206 43.9894 55.7456 43.8042C56.0525 43.5572 56.3594 43.4235 56.6663 43.4029C56.9936 43.3617 57.2903 43.4029 57.5562 43.5264C57.8427 43.6498 58.0779 43.835 58.2621 44.082C58.4667 44.3084 58.6099 44.5656 58.6917 44.8537C58.7531 45.1007 58.8042 45.3991 58.8451 45.7489C58.8861 46.0782 58.9065 46.428 58.9065 46.7984C58.927 47.1689 58.9372 47.5393 58.9372 47.9097C58.9372 48.2801 58.9372 48.6197 58.9372 48.9284H59.2441C59.551 48.9284 59.909 48.9181 60.3182 48.8975C60.7274 48.8769 61.1263 48.8872 61.5151 48.9284C61.9242 48.9695 62.2925 49.0724 62.6198 49.2371C62.9472 49.3811 63.1927 49.6384 63.3564 50.0088Z" fill="white"/>
<path d="M36.2275 52.6944C36.2275 52.4474 36.2275 52.1696 36.2275 51.8609C36.2275 51.5316 36.2377 51.2024 36.2581 50.8731C36.2786 50.5233 36.3093 50.194 36.3502 49.8853C36.4116 49.556 36.4934 49.2679 36.5957 49.021C36.7594 48.6506 37.0151 48.4036 37.3629 48.2801C37.7107 48.1361 38.0892 48.0743 38.4984 48.0949C38.9281 48.0949 39.2656 48.167 39.5111 48.311C39.7566 48.4551 39.9408 48.6506 40.0635 48.8975C40.1863 49.1239 40.2579 49.3914 40.2783 49.7001C40.3193 49.9882 40.3397 50.2969 40.3397 50.6262C40.5239 50.2969 40.7694 50.0294 41.0762 49.8236C41.4036 49.6178 41.7309 49.4531 42.0583 49.3297C42.3856 49.2062 42.6823 49.1239 42.9482 49.0827C43.2142 49.021 43.3677 48.9901 43.4086 48.9901C43.92 48.949 44.3804 48.9387 44.7896 48.9592C45.2192 48.9798 45.6898 49.0724 46.2012 49.2371C46.5286 49.3605 46.8661 49.5355 47.214 49.7618C47.5618 49.9676 47.8686 50.2146 48.1346 50.5027C48.4006 50.7908 48.5745 51.1098 48.6563 51.4596C48.7586 51.7889 48.7177 52.1387 48.5336 52.5091C48.2471 53.0236 47.93 53.2809 47.5822 53.2809C47.2344 53.2603 46.8559 53.1985 46.4467 53.0956C46.2217 53.0545 45.9557 52.9619 45.6488 52.8178C45.342 52.6738 45.076 52.5812 44.8509 52.54C44.1553 52.4371 43.5416 52.4886 43.0096 52.6944C42.4777 52.9001 42.0174 53.1471 41.6286 53.4352C41.1785 53.785 40.7898 54.1863 40.4625 54.6391V59.0842C40.4625 59.6398 40.4522 60.216 40.4318 60.8128C40.4318 61.4096 40.35 61.9549 40.1863 62.4488C40.0431 62.9222 39.7873 63.3132 39.4191 63.6219C39.0713 63.91 38.5598 64.0334 37.8846 63.9923C37.5164 63.9717 37.189 63.7968 36.9026 63.4675C36.6162 63.1177 36.4423 62.7781 36.3809 62.4488C36.34 62.1402 36.3093 61.7697 36.2888 61.3376C36.2684 60.9054 36.2479 60.4527 36.2275 59.9794C36.2275 59.506 36.2275 59.0327 36.2275 58.5594C36.2275 58.0655 36.2275 57.6128 36.2275 57.2012V52.6944Z" fill="white"/>
<path d="M23.133 49.6692C23.8082 49.34 24.514 49.1033 25.2505 48.9592C25.9871 48.8152 26.7134 48.7843 27.4294 48.8666C28.1659 48.949 28.8718 49.1445 29.5469 49.4531C30.2425 49.7618 30.8768 50.194 31.4496 50.7496C31.9202 51.2229 32.3294 51.7992 32.6772 52.4783C33.025 53.1368 33.2807 53.785 33.4444 54.423C33.7922 55.5548 33.8433 56.697 33.5978 57.8494C33.3523 59.0018 32.9329 60.072 32.3396 61.0597C32.0532 61.5125 31.6951 61.9241 31.2655 62.2945C30.8563 62.6443 30.4164 62.9325 29.9459 63.1588C29.3321 63.4469 28.6672 63.6424 27.9511 63.7453C27.2351 63.8688 26.5395 63.8997 25.8643 63.8379C24.6368 63.7762 23.5524 63.4675 22.6113 62.9119C21.6907 62.3562 20.9439 61.6463 20.3711 60.7819C19.8187 59.9176 19.4504 58.9401 19.2663 57.8494C19.1026 56.7381 19.1742 55.6063 19.4811 54.4539C19.8084 53.2191 20.279 52.221 20.8928 51.4596C21.527 50.6776 22.2737 50.0808 23.133 49.6692ZM24.0537 53.8056C23.7468 54.0937 23.5115 54.4539 23.3478 54.886C23.1842 55.3182 23.0819 55.7709 23.041 56.2442C23 56.697 23.0307 57.16 23.133 57.6333C23.2558 58.0861 23.4399 58.4977 23.6854 58.8681C23.89 59.1768 24.2583 59.434 24.7902 59.6398C25.3221 59.8456 25.8745 59.9691 26.4474 60.0102C27.1021 60.0514 27.6749 59.8765 28.1659 59.4855C28.657 59.0739 29.0252 58.5697 29.2707 57.9729C29.5367 57.3761 29.6595 56.7279 29.639 56.0282C29.6185 55.3285 29.4344 54.6905 29.0866 54.1143C28.8411 53.7027 28.4933 53.4043 28.0432 53.2191C27.6136 53.0133 27.1532 52.9104 26.6622 52.9104C26.1916 52.8899 25.7211 52.9619 25.2505 53.1265C24.78 53.2706 24.381 53.4969 24.0537 53.8056Z" fill="white"/>
<path d="M16.6884 61.2758C16.668 61.6257 16.6168 61.9961 16.535 62.3871C16.4736 62.7781 16.2792 63.0971 15.9519 63.344C15.7064 63.5498 15.4302 63.6733 15.1233 63.7145C14.8164 63.7556 14.5095 63.735 14.2027 63.6527C13.9162 63.591 13.64 63.4881 13.3741 63.344C13.1081 63.1794 12.8933 62.9839 12.7296 62.7575C12.034 61.8932 11.3895 61.0083 10.7962 60.1028C10.2234 59.1768 9.64029 58.2507 9.04698 57.3246L6.46914 53.4043C6.12134 52.8487 5.75308 52.2313 5.36436 51.5522C4.97563 50.8525 4.57668 50.2043 4.1675 49.6075L4.07544 61.3993V61.6771C4.07544 62.0064 4.01406 62.3357 3.89131 62.6649C3.78901 62.9736 3.60488 63.2411 3.33891 63.4675C3.13432 63.6321 2.86835 63.7453 2.54101 63.8071C2.02953 63.91 1.5999 63.8791 1.25209 63.7145C0.924748 63.5498 0.65878 63.3235 0.45419 63.0353C0.270059 62.7472 0.137076 62.418 0.0552395 62.0476C-0.00613765 61.6565 -0.0163673 61.2758 0.0245508 60.9054V60.3806L0.0859279 57.9729L0.116616 53.4969C0.137075 52.8384 0.147305 52.1696 0.147305 51.4905C0.147305 50.7908 0.147305 50.0808 0.147305 49.3605C0.126846 48.4756 0.126846 47.5393 0.147305 46.5515C0.188223 45.5637 0.229141 44.6376 0.270059 43.7733C0.310977 43.3 0.423502 42.8987 0.607633 42.5694C0.689469 42.2813 0.904289 42.0344 1.25209 41.8286C1.47714 41.6845 1.76357 41.5919 2.11137 41.5508C2.47963 41.5096 2.79675 41.5199 3.06272 41.5816C3.16501 41.6228 3.26731 41.6742 3.3696 41.736C3.4719 41.7771 3.57419 41.8286 3.67649 41.8903C3.77878 41.9726 3.87085 42.055 3.95268 42.1373C4.05498 42.2196 4.14704 42.3122 4.22888 42.4151C4.33117 42.518 4.42324 42.6312 4.50508 42.7546C4.58691 42.8575 4.66875 42.9604 4.75058 43.0633C4.81196 43.1868 4.87334 43.3 4.93472 43.4029C4.99609 43.5058 5.0677 43.6087 5.14954 43.7116L5.48711 44.2055L12.5762 55.4417V53.4043C12.5762 52.7458 12.5659 52.077 12.5455 51.3979C12.5455 50.6982 12.5352 49.9779 12.5148 49.2371C12.5148 48.3727 12.5148 47.4467 12.5148 46.4589C12.5352 45.4711 12.5659 44.545 12.6068 43.6807C12.6068 43.3309 12.7091 42.9296 12.9137 42.4768C13.016 42.2093 13.1899 41.9932 13.4354 41.8286C13.6809 41.664 13.9571 41.5508 14.264 41.489C14.5709 41.4273 14.8778 41.4273 15.1847 41.489C15.4916 41.5508 15.7575 41.6742 15.9826 41.8595C16.044 41.9212 16.1053 41.9932 16.1667 42.0755C16.2281 42.1579 16.2792 42.2505 16.3202 42.3534C16.4225 42.6209 16.4838 42.8575 16.5043 43.0633C16.5657 43.3514 16.5964 43.6087 16.5964 43.835C16.5964 46.4074 16.5964 49.0313 16.5964 51.7066C16.6168 54.3818 16.6373 57.0057 16.6577 59.5781C16.6577 59.8662 16.668 60.1543 16.6884 60.4424C16.7089 60.7099 16.7089 60.9877 16.6884 61.2758Z" fill="white"/>
<path d="M41.3073 8.41252L36.2709 17.1792H60.3928L50.2315 0L43.6046 11.4233L41.3073 8.41252Z" fill="#019C39"/>
<path d="M56.2551 13.7125C58.443 13.7125 60.2167 11.9284 60.2167 9.7276C60.2167 7.52681 58.443 5.74272 56.2551 5.74272C54.0671 5.74272 52.2935 7.52681 52.2935 9.7276C52.2935 11.9284 54.0671 13.7125 56.2551 13.7125Z" fill="url(#paint0_linear_18950_1079)"/>
<defs>
<linearGradient id="paint0_linear_18950_1079" x1="448.456" y1="5.74272" x2="448.456" y2="802.718" gradientUnits="userSpaceOnUse">
<stop stop-color="#053087"/>
<stop offset="1" stop-color="#012877"/>
</linearGradient>
</defs>
</svg>
