<svg width="443" height="362" viewBox="0 0 443 362" fill="none" xmlns="http://www.w3.org/2000/svg">
<path d="M442.638 186.221C442.517 186.824 442.397 187.428 442.276 188.031C442.276 188.514 442.276 189.057 442.276 189.66L441.19 193.461C440.949 193.944 440.767 194.246 440.647 194.366L440.104 195.452C439.5 196.78 438.414 197.866 436.846 198.71C433.949 200.158 430.872 200.52 427.614 199.796C425.563 199.555 423.934 198.952 422.727 197.986C421.52 197.142 420.676 196.116 420.193 194.909C419.71 193.702 419.348 192.496 419.107 191.289C418.745 190.082 418.564 188.996 418.564 188.031V86.6661C418.564 85.8214 418.564 85.0974 418.564 84.494C418.684 83.77 418.805 83.1063 418.926 82.5029C419.046 81.6582 419.167 80.9342 419.288 80.3308C419.529 79.7275 419.771 79.0638 420.012 78.3397C420.374 77.133 421.038 76.1676 422.003 75.4436C423.451 74.3575 424.839 73.7542 426.166 73.6335C427.011 73.3922 427.795 73.2715 428.519 73.2715C429.243 73.1508 430.088 73.0905 431.053 73.0905C432.743 73.0905 434.674 73.5732 436.846 74.5386C438.535 75.5039 439.742 76.8313 440.466 78.5207C441.673 80.9342 442.276 83.1666 442.276 85.2181C442.397 86.4248 442.457 88.2349 442.457 90.6483C442.578 93.0618 442.638 94.8718 442.638 96.0786V96.8026C442.879 100.664 443 104.405 443 108.025C443 111.525 442.94 115.386 442.819 119.61C442.819 123.713 442.759 127.695 442.638 131.556C442.638 135.297 442.638 139.038 442.638 142.779V180.791C442.638 181.273 442.638 181.756 442.638 182.239C442.759 182.601 442.819 183.023 442.819 183.506C442.819 184.712 442.759 185.617 442.638 186.221Z" fill="#053087"/>
<path d="M402.246 132.099C402.246 135.478 402.246 139.279 402.246 143.503C402.366 147.726 402.427 152.131 402.427 156.716C402.427 161.181 402.427 165.646 402.427 170.111C402.427 174.455 402.366 178.498 402.246 182.239C402.125 184.049 401.944 186.04 401.703 188.212C401.461 190.263 400.979 192.194 400.255 194.004C399.53 195.814 398.384 197.323 396.815 198.529C395.367 199.615 393.376 200.098 390.842 199.977C387.101 199.736 384.386 198.107 382.697 195.09C381.128 192.073 380.223 187.85 379.982 182.42C379.982 179.644 379.921 176.446 379.801 172.826C379.801 169.206 379.74 165.526 379.62 161.785C379.62 158.044 379.62 154.424 379.62 150.924C379.62 147.304 379.62 144.046 379.62 141.15C379.62 139.46 379.559 137.409 379.439 134.995C379.439 132.582 379.499 130.108 379.62 127.574C379.74 125.04 380.042 122.626 380.525 120.334C381.007 117.92 381.792 115.929 382.878 114.36C383.722 113.395 384.929 112.671 386.498 112.188C388.067 111.585 389.696 111.283 391.385 111.283C393.195 111.283 394.885 111.585 396.453 112.188C398.143 112.792 399.349 113.636 400.073 114.722C400.556 115.446 400.918 116.472 401.16 117.8C401.401 119.127 401.582 120.635 401.703 122.325C401.944 123.894 402.065 125.583 402.065 127.393C402.185 129.082 402.246 130.651 402.246 132.099ZM395.367 95.5356C391.626 96.5009 388.489 96.1389 385.955 94.4495C383.541 92.6394 382.033 89.9846 381.43 86.4851C380.947 83.951 381.128 81.7186 381.973 79.7878C382.817 77.8571 384.084 76.409 385.774 75.4436C387.463 74.3576 389.394 73.8749 391.566 73.9955C393.738 74.1162 395.91 74.9609 398.082 76.5297C400.134 77.9777 401.582 79.6671 402.427 81.5979C403.392 83.5287 403.694 85.3991 403.332 87.2092C403.09 89.0192 402.306 90.7087 400.979 92.2774C399.651 93.7255 397.781 94.8115 395.367 95.5356Z" fill="#053087"/>
<path d="M340.063 168.844C337.771 167.396 335.176 166.25 332.28 165.405C329.505 164.56 326.609 163.776 323.592 163.052C320.696 162.328 317.86 161.543 315.084 160.699C312.309 159.733 309.775 158.406 307.482 156.716C302.534 152.976 299.638 148.39 298.794 142.96C298.069 137.409 299.276 131.858 302.414 126.307C304.103 123.411 306.336 121.058 309.111 119.248C311.886 117.317 314.903 115.869 318.161 114.903C321.54 113.817 324.979 113.214 328.479 113.093C331.978 112.973 335.297 113.154 338.434 113.636C340.486 113.998 342.658 114.541 344.951 115.265C347.243 115.869 349.355 116.714 351.286 117.8C353.337 118.886 355.147 120.273 356.716 121.963C358.406 123.532 359.612 125.523 360.336 127.936C360.819 129.505 360.879 131.013 360.517 132.461C360.276 133.909 359.673 135.116 358.707 136.081C357.863 137.047 356.716 137.771 355.268 138.254C353.941 138.736 352.493 138.857 350.924 138.616C349.114 138.254 347.424 137.711 345.856 136.986C344.287 136.262 342.718 135.478 341.15 134.633C339.581 133.789 337.952 133.065 336.262 132.461C334.694 131.858 333.004 131.556 331.194 131.556C328.419 131.436 326.126 131.918 324.316 133.004C322.506 134.09 321.239 135.418 320.515 136.986C319.911 138.555 319.972 140.245 320.696 142.055C321.54 143.865 323.23 145.434 325.764 146.761C328.057 147.968 330.591 148.933 333.366 149.657C336.142 150.381 338.857 151.105 341.512 151.829C344.287 152.553 346.942 153.398 349.476 154.363C352.131 155.329 354.484 156.656 356.535 158.345C360.517 161.604 362.931 165.405 363.776 169.749C364.741 174.093 364.5 178.377 363.052 182.601C361.603 186.824 359.069 190.565 355.449 193.823C351.95 197.081 347.787 199.253 342.96 200.339C339.46 201.064 335.659 201.426 331.556 201.426C327.574 201.426 323.592 201.003 319.61 200.158C315.748 199.314 312.007 197.986 308.387 196.176C304.887 194.366 301.931 192.073 299.518 189.298C297.828 187.367 296.923 185.195 296.802 182.782C296.802 180.248 297.285 178.075 298.251 176.265C299.337 174.335 300.845 173.007 302.776 172.283C304.706 171.559 306.879 171.981 309.292 173.55C311.223 174.878 313.516 176.205 316.17 177.532C318.825 178.739 321.48 179.705 324.135 180.429C326.79 181.153 329.324 181.515 331.737 181.515C334.271 181.515 336.443 180.972 338.253 179.886C340.908 178.196 342.296 176.265 342.417 174.093C342.537 171.8 341.753 170.051 340.063 168.844Z" fill="#053087"/>
<path d="M213.517 124.497C217.137 122.687 220.938 121.42 224.921 120.696C228.903 119.851 232.825 119.67 236.686 120.153C240.668 120.515 244.47 121.54 248.09 123.23C251.71 124.799 255.089 127.091 258.226 130.108C261.364 133.246 263.777 136.685 265.467 140.426C267.156 144.166 268.363 148.33 269.087 152.915C269.569 156.053 270.354 158.949 271.44 161.604C272.526 164.258 273.672 166.913 274.879 169.568C276.206 172.223 277.413 174.878 278.499 177.532C279.706 180.187 280.671 182.963 281.395 185.859C281.999 188.634 281.757 191.349 280.671 194.004C279.706 196.538 277.654 198.107 274.517 198.71C272.707 199.072 270.957 198.952 269.268 198.348C267.699 197.624 266.251 196.659 264.924 195.452C263.596 194.125 262.389 192.737 261.303 191.289C260.338 189.72 259.433 188.272 258.588 186.945C255.813 190.565 252.796 193.401 249.538 195.452C246.28 197.383 242.358 198.65 237.772 199.253C233.911 199.736 230.23 199.857 226.731 199.615C223.231 199.374 219.49 198.71 215.508 197.624C210.319 196.297 206.035 194.004 202.657 190.746C199.398 187.367 196.864 183.506 195.054 179.161C193.365 174.697 192.46 169.93 192.339 164.862C192.218 159.794 192.822 154.786 194.149 149.838C195.839 143.322 198.373 138.012 201.752 133.909C205.13 129.806 209.052 126.669 213.517 124.497ZM218.042 145.675C216.353 147.364 215.026 149.355 214.06 151.648C213.095 153.941 212.491 156.354 212.25 158.888C212.129 161.423 212.371 163.957 212.974 166.491C213.577 169.025 214.543 171.257 215.87 173.188C217.077 174.878 219.128 176.326 222.025 177.532C224.921 178.618 227.937 179.282 231.075 179.523C234.695 179.765 237.833 178.799 240.487 176.627C243.263 174.455 245.314 171.74 246.642 168.482C248.09 165.103 248.753 161.543 248.633 157.802C248.512 153.941 247.486 150.441 245.556 147.304C244.108 145.011 242.177 143.322 239.763 142.236C237.471 141.15 234.997 140.607 232.342 140.607C229.687 140.486 227.032 140.908 224.378 141.874C221.844 142.718 219.732 143.985 218.042 145.675Z" fill="#053087"/>
<path d="M103.608 136.625C103.608 135.176 103.608 133.547 103.608 131.737C103.608 129.807 103.668 127.876 103.789 125.945C103.91 123.894 104.091 121.963 104.332 120.153C104.694 118.222 105.177 116.533 105.78 115.084C106.745 112.912 108.254 111.464 110.305 110.74C112.357 109.896 114.589 109.534 117.002 109.654C119.537 109.654 121.528 110.077 122.976 110.921C124.424 111.766 125.51 112.912 126.234 114.36C126.958 115.688 127.38 117.257 127.501 119.067C127.742 120.756 127.863 122.566 127.863 124.497C128.949 122.566 130.397 120.997 132.207 119.791C134.138 118.584 136.069 117.619 137.999 116.895C139.93 116.171 141.68 115.688 143.249 115.447C144.817 115.084 145.722 114.903 145.964 114.903C148.981 114.662 151.696 114.602 154.109 114.722C156.643 114.843 159.419 115.386 162.436 116.352C164.366 117.076 166.357 118.101 168.409 119.429C170.46 120.635 172.27 122.083 173.839 123.773C175.408 125.462 176.434 127.333 176.916 129.384C177.52 131.315 177.278 133.366 176.192 135.538C174.503 138.555 172.632 140.064 170.581 140.064C168.53 139.943 166.297 139.581 163.884 138.978C162.556 138.736 160.988 138.193 159.177 137.349C157.367 136.504 155.799 135.961 154.471 135.719C150.368 135.116 146.748 135.418 143.611 136.625C140.473 137.831 137.758 139.279 135.465 140.969C132.811 143.02 130.518 145.373 128.587 148.028V174.093C128.587 177.351 128.527 180.73 128.406 184.23C128.406 187.729 127.923 190.927 126.958 193.823C126.113 196.599 124.605 198.891 122.433 200.702C120.381 202.391 117.364 203.115 113.382 202.874C111.21 202.753 109.279 201.727 107.59 199.796C105.901 197.745 104.875 195.754 104.513 193.823C104.272 192.013 104.091 189.841 103.97 187.307C103.849 184.773 103.729 182.118 103.608 179.343C103.608 176.567 103.608 173.792 103.608 171.016C103.608 168.12 103.608 165.465 103.608 163.052V136.625Z" fill="#053087"/>
<path d="M71.3174 133.909C74.8169 136.202 77.7733 138.917 80.1868 142.055C82.7209 145.072 84.712 148.812 86.1601 153.277C87.7288 158.225 88.5132 163.233 88.5132 168.301C88.6339 173.249 87.7288 177.894 85.798 182.239C83.988 186.462 81.0315 190.203 76.9286 193.461C72.9464 196.599 67.6972 198.831 61.1809 200.159C57.6814 201.003 53.5785 201.667 48.8723 202.15C44.1661 202.632 39.9426 202.874 36.2017 202.874C31.4955 202.994 26.6083 202.994 21.54 202.874C16.5924 202.874 11.7656 202.391 7.05933 201.426C5.0079 200.822 3.4995 199.796 2.53412 198.348C1.68941 196.78 1.08605 195.03 0.724035 193.099C0.241345 192.013 1.29876e-09 190.927 1.29876e-09 189.841V87.0282C1.29876e-09 83.6493 0.663698 81.0549 1.99109 79.2448C3.43916 77.314 5.30958 75.9263 7.60236 75.0816C9.89513 74.1162 12.4896 73.5732 15.3857 73.4525C18.2819 73.2112 21.2987 73.0905 24.4362 73.0905C26.8496 73.0905 29.263 73.0905 31.6765 73.0905C34.2106 72.9698 36.7447 72.9698 39.2789 73.0905C43.261 73.2112 47.3639 73.5732 51.5874 74.1766C55.9316 74.6592 60.0345 75.6246 63.896 77.0727C65.7061 77.6761 67.6369 78.5208 69.6883 79.6068C71.7397 80.5722 73.3688 81.7789 74.5755 83.227C78.437 86.7265 81.2728 90.8293 83.0829 95.5356C85.0137 100.121 85.8584 104.827 85.617 109.654C85.3757 114.36 84.0483 118.886 81.6348 123.23C79.3421 127.574 75.9029 131.134 71.3174 133.909ZM39.6409 181.877C43.3817 181.635 47.1829 181.213 51.0444 180.61C54.9059 180.006 57.5607 178.86 59.0088 177.17C60.5775 175.24 61.6636 173.007 62.2669 170.473C62.991 167.818 63.172 165.164 62.81 162.509C62.5686 159.733 61.7842 157.139 60.4568 154.725C59.2501 152.191 57.6211 150.2 55.5696 148.752C52.7942 146.58 49.5963 145.192 45.9762 144.589C42.356 143.865 38.7962 143.503 35.2967 143.503C33.6073 143.503 32.0385 143.563 30.5904 143.684C29.2631 143.684 28.0563 143.865 26.9703 144.227C26.0049 144.468 25.2809 145.011 24.7982 145.856C24.3155 146.701 24.0741 147.968 24.0741 149.657C24.3155 152.795 24.3155 155.932 24.0741 159.07C23.8328 162.207 23.7121 165.224 23.7121 168.12C23.7121 169.809 23.6518 171.68 23.5311 173.731C23.5311 175.662 24.1948 177.291 25.5222 178.618C26.8496 179.946 28.7804 180.851 31.3145 181.334C33.8486 181.816 36.6241 181.997 39.6409 181.877ZM43.261 94.9925C39.5202 94.8719 36.3827 94.8115 33.8486 94.8115C31.4352 94.6909 29.5044 94.8719 28.0563 95.3546C26.7289 95.7166 25.7635 96.6216 25.1602 98.0697C24.6775 99.3971 24.4965 101.449 24.6172 104.224C24.6172 106.517 24.5568 108.81 24.4362 111.102C24.4362 113.274 24.4362 115.447 24.4362 117.619C24.4362 120.032 25.2205 121.842 26.7893 123.049C28.358 124.135 30.2888 124.799 32.5815 125.04C34.995 125.281 37.4688 125.281 40.0029 125.04C42.6577 124.799 44.9505 124.497 46.8812 124.135C51.2254 123.411 54.5439 121.963 56.8367 119.791C59.2501 117.498 60.6379 114.179 60.9999 109.835C61.4826 104.405 60.0345 100.664 56.6557 98.6127C53.3975 96.4406 48.9326 95.2339 43.261 94.9925Z" fill="#053087"/>
<path fill-rule="evenodd" clip-rule="evenodd" d="M267.11 57.1623C265.615 56.203 265.645 54.6281 267.11 53.6885L316.293 22.1375C317.788 21.1782 320.243 21.1979 321.707 22.1375L370.89 53.6885C372.385 54.6478 372.355 56.2228 370.89 57.1623L321.707 88.7133C320.212 89.6726 317.757 89.6529 316.293 88.7133L267.11 57.1623Z" fill="#FDD216"/>
<path d="M166.891 218.062C168.543 217.261 170.27 216.685 172.073 216.335C173.875 215.984 175.653 215.909 177.405 216.109C179.207 216.309 180.934 216.785 182.587 217.536C184.289 218.287 185.841 219.338 187.243 220.69C188.394 221.842 189.396 223.244 190.247 224.896C191.098 226.498 191.724 228.075 192.124 229.627C192.975 232.381 193.1 235.159 192.5 237.963C191.899 240.767 190.873 243.37 189.421 245.773C188.72 246.875 187.844 247.876 186.792 248.777C185.791 249.628 184.714 250.329 183.563 250.88C182.061 251.581 180.434 252.056 178.682 252.307C176.929 252.607 175.227 252.682 173.575 252.532C170.571 252.382 167.917 251.631 165.614 250.279C163.361 248.927 161.534 247.2 160.132 245.097C158.78 242.995 157.879 240.616 157.429 237.963C157.028 235.259 157.203 232.506 157.954 229.702C158.755 226.698 159.907 224.27 161.409 222.418C162.961 220.515 164.788 219.063 166.891 218.062ZM169.144 228.125C168.393 228.826 167.817 229.702 167.417 230.753C167.016 231.805 166.766 232.906 166.666 234.058C166.566 235.159 166.641 236.286 166.891 237.437C167.191 238.539 167.642 239.54 168.243 240.441C168.743 241.192 169.645 241.818 170.946 242.319C172.248 242.819 173.6 243.12 175.002 243.22C176.604 243.32 178.006 242.894 179.207 241.943C180.409 240.942 181.31 239.715 181.911 238.263C182.562 236.811 182.862 235.234 182.812 233.532C182.762 231.83 182.311 230.278 181.46 228.876C180.859 227.875 180.008 227.149 178.907 226.698C177.855 226.198 176.729 225.947 175.527 225.947C174.376 225.897 173.224 226.072 172.073 226.473C170.921 226.823 169.945 227.374 169.144 228.125Z" fill="#FF0000"/>
<path d="M122.793 220.39C124.295 219.639 125.872 219.113 127.524 218.813C129.176 218.462 130.803 218.387 132.405 218.588C134.058 218.738 135.635 219.163 137.137 219.864C138.639 220.515 140.04 221.466 141.342 222.718C142.644 224.02 143.645 225.447 144.346 226.999C145.047 228.551 145.548 230.278 145.848 232.18C146.048 233.482 146.374 234.684 146.824 235.785C147.275 236.887 147.751 237.988 148.251 239.09C148.802 240.191 149.303 241.292 149.753 242.394C150.254 243.495 150.654 244.647 150.955 245.848C151.205 247 151.105 248.126 150.654 249.228C150.254 250.279 149.403 250.93 148.101 251.18C147.35 251.331 146.624 251.281 145.923 251.03C145.272 250.73 144.672 250.329 144.121 249.829C143.57 249.278 143.069 248.702 142.619 248.101C142.218 247.451 141.843 246.85 141.492 246.299C140.341 247.801 139.089 248.978 137.737 249.829C136.386 250.63 134.759 251.155 132.856 251.406C131.254 251.606 129.727 251.656 128.275 251.556C126.823 251.456 125.271 251.18 123.619 250.73C121.466 250.179 119.689 249.228 118.287 247.876C116.935 246.474 115.884 244.872 115.133 243.07C114.432 241.217 114.056 239.24 114.006 237.137C113.956 235.034 114.206 232.956 114.757 230.904C115.458 228.2 116.51 225.997 117.911 224.295C119.313 222.593 120.94 221.291 122.793 220.39ZM124.67 229.177C123.969 229.877 123.419 230.704 123.018 231.655C122.618 232.606 122.367 233.607 122.267 234.659C122.217 235.71 122.317 236.761 122.567 237.813C122.818 238.864 123.218 239.79 123.769 240.592C124.27 241.292 125.121 241.893 126.322 242.394C127.524 242.844 128.776 243.12 130.077 243.22C131.579 243.32 132.881 242.92 133.982 242.018C135.134 241.117 135.985 239.991 136.536 238.639C137.137 237.237 137.412 235.76 137.362 234.208C137.312 232.606 136.886 231.154 136.085 229.852C135.484 228.901 134.683 228.2 133.682 227.75C132.731 227.299 131.705 227.074 130.603 227.074C129.502 227.024 128.4 227.199 127.299 227.599C126.247 227.95 125.371 228.476 124.67 229.177Z" fill="#FF0000"/>
<path d="M427.925 335.353C429.319 335.004 430.714 334.772 432.108 334.655C433.619 334.539 434.955 334.714 436.117 335.178C437.395 335.643 438.441 336.457 439.254 337.618C440.068 338.664 440.474 340.175 440.474 342.15C440.474 343.544 440.126 344.881 439.428 346.159C438.731 347.437 437.86 348.599 436.814 349.645C435.768 350.691 434.606 351.62 433.328 352.434C432.05 353.131 430.83 353.712 429.668 354.177C426.298 355.687 422.406 356.849 417.99 357.662C413.691 358.476 409.217 358.766 404.569 358.534C398.295 358.301 392.253 357.081 386.443 354.874C380.749 352.55 376.275 348.773 373.022 343.544C370.001 338.432 368.2 332.738 367.619 326.464C367.038 320.189 367.328 314.263 368.49 308.685C369.768 301.946 371.918 296.485 374.939 292.302C378.077 288.002 381.795 284.575 386.094 282.018C391.323 278.997 397.191 277.429 403.698 277.312C410.205 277.196 416.421 278.474 422.347 281.147C426.298 282.89 429.842 285.272 432.979 288.293C436.117 291.198 438.499 294.742 440.126 298.925C440.59 299.971 440.939 301.249 441.171 302.759C441.52 304.27 441.752 305.897 441.869 307.64C441.985 309.266 441.985 310.893 441.869 312.52C441.752 314.147 441.462 315.599 440.997 316.877C440.3 318.969 439.428 320.596 438.383 321.758C437.337 322.92 436.001 323.791 434.374 324.372C432.747 324.953 430.772 325.36 428.448 325.592C426.24 325.708 423.568 325.825 420.43 325.941C417.642 326.057 415.027 326.115 412.587 326.115C410.147 326.115 407.649 326.115 405.092 326.115C402.536 325.999 399.863 325.941 397.075 325.941C394.402 325.825 391.381 325.708 388.011 325.592C387.663 327.916 387.953 329.949 388.883 331.692C389.929 333.319 391.323 334.714 393.066 335.876C394.809 336.921 396.784 337.735 398.992 338.316C401.2 338.897 403.349 339.245 405.441 339.361C409.392 339.594 413.168 339.303 416.77 338.49C420.372 337.56 424.09 336.515 427.925 335.353ZM420.43 301.539C418.223 298.983 415.899 297.124 413.458 295.962C411.599 295.149 409.624 294.8 407.532 294.916C405.557 294.916 403.64 295.207 401.781 295.788C398.411 296.601 395.564 298.344 393.24 301.017C393.008 301.249 392.601 301.83 392.02 302.759C391.439 303.573 390.858 304.444 390.277 305.374C389.812 306.303 389.464 307.175 389.231 307.988C388.999 308.802 389.115 309.208 389.58 309.208H423.742C423.626 307.582 423.335 306.245 422.87 305.2C422.406 304.038 421.592 302.818 420.43 301.539Z" fill="#019C39"/>
<path d="M359.832 282.367C360.761 284.575 360.819 287.015 360.006 289.687C359.309 292.36 357.972 294.103 355.997 294.916C354.951 295.381 353.557 295.788 351.814 296.136C350.071 296.369 348.154 296.601 346.062 296.833C344.087 297.066 342.112 297.24 340.136 297.356C338.161 297.472 336.476 297.531 335.082 297.531C335.198 301.016 335.314 304.619 335.43 308.337C335.546 311.939 335.663 315.483 335.779 318.969C335.895 322.455 335.953 325.824 335.953 329.078C335.953 332.215 335.895 335.062 335.779 337.618C335.779 339.361 335.779 341.395 335.779 343.719C335.779 345.927 335.605 348.076 335.256 350.168C335.024 352.259 334.617 354.118 334.036 355.745C333.455 357.256 332.583 358.243 331.422 358.708C327.819 360.219 324.508 360.625 321.487 359.928C318.582 359.347 316.49 358.127 315.212 356.268C314.283 354.757 313.585 353.014 313.121 351.039C312.656 348.948 312.307 346.856 312.075 344.765C311.959 342.557 311.9 340.465 311.9 338.49C312.017 336.398 312.075 334.597 312.075 333.087C312.191 328.207 312.249 322.687 312.249 316.529C312.365 310.254 312.423 303.979 312.423 297.705H309.809C308.415 297.705 306.614 297.705 304.406 297.705C302.314 297.589 300.165 297.414 297.957 297.182C295.865 296.833 293.89 296.427 292.031 295.962C290.172 295.381 288.835 294.568 288.022 293.522C286.744 292.011 285.931 290.384 285.582 288.642C285.35 286.899 285.466 285.272 285.931 283.761C286.512 282.135 287.383 280.74 288.545 279.578C289.707 278.3 291.043 277.487 292.554 277.138C294.645 276.557 297.608 276.267 301.443 276.267C305.277 276.15 308.879 276.15 312.249 276.267C312.133 275.105 312.075 274.001 312.075 272.955C312.075 271.793 312.017 270.689 311.9 269.643C311.784 268.249 311.726 266.506 311.726 264.414C311.726 262.207 311.842 260.057 312.075 257.966C312.423 255.758 312.946 253.724 313.643 251.865C314.341 249.89 315.328 248.379 316.606 247.334C318.349 245.939 320.092 245.184 321.835 245.068C323.694 244.835 325.379 245.068 326.89 245.765C328.517 246.462 329.853 247.508 330.899 248.902C332.061 250.18 332.874 251.633 333.339 253.26C333.687 254.654 333.978 256.339 334.21 258.314C334.443 260.173 334.559 262.149 334.559 264.24C334.675 266.332 334.733 268.423 334.733 270.515C334.733 272.606 334.733 274.524 334.733 276.267H336.476C338.219 276.267 340.252 276.208 342.576 276.092C344.9 275.976 347.166 276.034 349.374 276.267C351.698 276.499 353.789 277.08 355.649 278.01C357.508 278.823 358.902 280.275 359.832 282.367Z" fill="#019C39"/>
<path d="M205.753 297.531C205.753 296.136 205.753 294.568 205.753 292.825C205.753 290.965 205.811 289.106 205.928 287.247C206.044 285.272 206.218 283.413 206.451 281.67C206.799 279.811 207.264 278.184 207.845 276.789C208.774 274.698 210.227 273.304 212.202 272.606C214.178 271.793 216.327 271.444 218.651 271.561C221.091 271.561 223.009 271.967 224.403 272.781C225.797 273.594 226.843 274.698 227.54 276.092C228.237 277.37 228.644 278.881 228.76 280.624C228.993 282.251 229.109 283.994 229.109 285.853C230.155 283.994 231.549 282.483 233.292 281.321C235.151 280.159 237.01 279.23 238.869 278.532C240.729 277.835 242.413 277.37 243.924 277.138C245.435 276.789 246.306 276.615 246.538 276.615C249.443 276.383 252.058 276.325 254.382 276.441C256.822 276.557 259.494 277.08 262.399 278.01C264.258 278.707 266.176 279.694 268.151 280.973C270.126 282.135 271.869 283.529 273.38 285.156C274.89 286.782 275.878 288.583 276.343 290.559C276.924 292.418 276.691 294.393 275.646 296.485C274.019 299.39 272.218 300.842 270.243 300.842C268.267 300.726 266.118 300.377 263.794 299.796C262.515 299.564 261.005 299.041 259.262 298.228C257.519 297.414 256.008 296.892 254.73 296.659C250.78 296.078 247.294 296.369 244.273 297.531C241.251 298.693 238.637 300.087 236.429 301.714C233.873 303.689 231.665 305.955 229.806 308.511V333.61C229.806 336.747 229.748 340.001 229.632 343.37C229.632 346.74 229.167 349.819 228.237 352.608C227.424 355.28 225.972 357.488 223.88 359.231C221.905 360.858 219 361.555 215.165 361.323C213.074 361.206 211.215 360.219 209.588 358.36C207.961 356.384 206.973 354.467 206.625 352.608C206.392 350.865 206.218 348.773 206.102 346.333C205.986 343.893 205.87 341.337 205.753 338.664C205.753 335.992 205.753 333.319 205.753 330.647C205.753 327.858 205.753 325.302 205.753 322.978V297.531Z" fill="#019C39"/>
<path d="M131.384 280.45C135.218 278.59 139.227 277.254 143.41 276.441C147.593 275.627 151.718 275.453 155.785 275.918C159.968 276.383 163.977 277.487 167.811 279.23C171.762 280.973 175.364 283.413 178.618 286.55C181.29 289.222 183.614 292.476 185.589 296.31C187.565 300.029 189.017 303.689 189.947 307.291C191.922 313.682 192.213 320.131 190.818 326.638C189.424 333.145 187.042 339.187 183.672 344.765C182.045 347.321 180.012 349.645 177.572 351.736C175.248 353.712 172.75 355.338 170.077 356.617C166.591 358.243 162.815 359.347 158.748 359.928C154.681 360.625 150.73 360.8 146.896 360.451C139.924 360.102 133.766 358.36 128.421 355.222C123.192 352.085 118.951 348.076 115.697 343.196C112.56 338.316 110.468 332.796 109.423 326.638C108.493 320.363 108.9 313.972 110.643 307.465C112.502 300.494 115.174 294.858 118.66 290.559C122.262 286.143 126.503 282.774 131.384 280.45ZM136.613 303.805C134.87 305.432 133.533 307.465 132.604 309.906C131.674 312.346 131.093 314.902 130.861 317.574C130.628 320.131 130.803 322.745 131.384 325.418C132.081 327.974 133.127 330.298 134.521 332.39C135.683 334.133 137.775 335.585 140.796 336.747C143.817 337.909 146.954 338.606 150.208 338.839C153.926 339.071 157.179 338.083 159.968 335.875C162.757 333.552 164.848 330.705 166.243 327.335C167.753 323.965 168.45 320.305 168.334 316.354C168.218 312.404 167.172 308.802 165.197 305.548C163.803 303.224 161.827 301.539 159.271 300.494C156.831 299.332 154.216 298.751 151.428 298.751C148.755 298.634 146.083 299.041 143.41 299.971C140.738 300.784 138.472 302.062 136.613 303.805Z" fill="#019C39"/>
<path d="M94.7817 345.985C94.6655 347.96 94.375 350.051 93.9102 352.259C93.5616 354.467 92.4577 356.268 90.5986 357.662C89.2042 358.824 87.6356 359.522 85.8926 359.754C84.1497 359.986 82.4067 359.87 80.6638 359.405C79.037 359.057 77.4684 358.476 75.9578 357.662C74.4472 356.733 73.2272 355.629 72.2976 354.351C68.3469 349.47 64.6867 344.474 61.317 339.361C58.0635 334.133 54.7519 328.904 51.3822 323.675L36.7414 301.539C34.7661 298.402 32.6745 294.916 30.4668 291.082C28.259 287.131 25.9932 283.471 23.6693 280.101L23.1464 346.682V348.25C23.1464 350.11 22.7978 351.969 22.1006 353.828C21.5196 355.571 20.4739 357.081 18.9633 358.36C17.8013 359.289 16.2908 359.928 14.4316 360.277C11.5267 360.858 9.08658 360.683 7.11124 359.754C5.25209 358.824 3.74153 357.546 2.57957 355.919C1.5338 354.293 0.778519 352.434 0.313732 350.342C-0.0348587 348.134 -0.0929576 345.985 0.139436 343.893V340.93L0.488026 327.335L0.662322 302.062C0.778518 298.344 0.836616 294.568 0.836616 290.733C0.836616 286.782 0.836616 282.774 0.836616 278.707C0.72042 273.71 0.72042 268.423 0.836616 262.846C1.06901 257.268 1.3014 252.04 1.5338 247.159C1.76619 244.487 2.40527 242.221 3.45104 240.362C3.91583 238.735 5.13589 237.341 7.11124 236.179C8.3894 235.365 10.0162 234.842 11.9915 234.61C14.083 234.378 15.8841 234.436 17.3946 234.784C17.9756 235.017 18.5566 235.307 19.1376 235.656C19.7186 235.888 20.2996 236.179 20.8806 236.527C21.4615 236.992 21.9844 237.457 22.4492 237.922C23.0302 238.386 23.5531 238.909 24.0179 239.49C24.5988 240.071 25.1217 240.71 25.5865 241.408C26.0513 241.989 26.5161 242.57 26.9809 243.15C27.3295 243.848 27.6781 244.487 28.0267 245.068C28.3752 245.649 28.7819 246.23 29.2467 246.811L31.164 249.599L71.4261 313.043V301.539C71.4261 297.821 71.368 294.045 71.2518 290.21C71.2518 286.259 71.1937 282.193 71.0775 278.01C71.0775 273.129 71.0775 267.9 71.0775 262.323C71.1937 256.745 71.368 251.517 71.6004 246.636C71.6004 244.661 72.1814 242.395 73.3434 239.839C73.9244 238.328 74.912 237.108 76.3064 236.179C77.7008 235.249 79.2694 234.61 81.0124 234.261C82.7553 233.913 84.4983 233.913 86.2412 234.261C87.9842 234.61 89.4947 235.307 90.7729 236.353C91.1215 236.702 91.4701 237.108 91.8187 237.573C92.1673 238.038 92.4577 238.561 92.6901 239.142C93.2711 240.652 93.6197 241.989 93.7359 243.15C94.0845 244.777 94.2588 246.23 94.2588 247.508C94.2588 262.032 94.2588 276.848 94.2588 291.953C94.375 307.059 94.4912 321.874 94.6074 336.398C94.6074 338.025 94.6655 339.652 94.7817 341.279C94.8979 342.789 94.8979 344.358 94.7817 345.985Z" fill="#019C39"/>
<path d="M234.604 47.5L206 97H343L285.289 0L247.652 64.5L234.604 47.5Z" fill="#019C39"/>
<path d="M319.5 77.4254C331.926 77.4254 342 67.3518 342 54.9254C342 42.499 331.926 32.4254 319.5 32.4254C307.074 32.4254 297 42.499 297 54.9254C297 67.3518 307.074 77.4254 319.5 77.4254Z" fill="url(#paint0_linear_18911_1648)"/>
<defs>
<linearGradient id="paint0_linear_18911_1648" x1="2547" y1="32.4254" x2="2547" y2="4532.43" gradientUnits="userSpaceOnUse">
<stop stop-color="#053087"/>
<stop offset="1" stop-color="#012877"/>
</linearGradient>
</defs>
</svg>

