<svg width="1167" height="131" viewBox="0 0 1167 131" fill="none" xmlns="http://www.w3.org/2000/svg">
<path d="M598.638 113.221C598.517 113.824 598.397 114.428 598.276 115.031C598.276 115.514 598.276 116.057 598.276 116.66L597.19 120.461C596.949 120.944 596.768 121.246 596.647 121.366L596.104 122.452C595.5 123.78 594.414 124.866 592.846 125.71C589.95 127.158 586.872 127.52 583.614 126.796C581.563 126.555 579.934 125.952 578.727 124.986C577.52 124.142 576.676 123.116 576.193 121.909C575.71 120.702 575.348 119.496 575.107 118.289C574.745 117.082 574.564 115.996 574.564 115.031V13.6661C574.564 12.8214 574.564 12.0974 574.564 11.494C574.684 10.77 574.805 10.1063 574.926 9.5029C575.046 8.65819 575.167 7.93416 575.288 7.3308C575.529 6.72744 575.771 6.06374 576.012 5.3397C576.374 4.13298 577.038 3.1676 578.003 2.44357C579.451 1.35752 580.839 0.754154 582.166 0.633484C583.011 0.392135 583.795 0.27146 584.519 0.27146C585.243 0.15079 586.088 0.0904541 587.053 0.0904541C588.743 0.0904541 590.674 0.573144 592.846 1.53853C594.535 2.50391 595.742 3.8313 596.466 5.52072C597.673 7.93416 598.276 10.1666 598.276 12.218C598.397 13.4248 598.457 15.2348 598.457 17.6483C598.578 20.0617 598.638 21.8718 598.638 23.0785V23.8026C598.879 27.6641 599 31.4049 599 35.0251C599 38.5246 598.94 42.3861 598.819 46.6096C598.819 50.7125 598.759 54.6947 598.638 58.5562C598.638 62.2971 598.638 66.0379 598.638 69.7787V107.791C598.638 108.273 598.638 108.756 598.638 109.239C598.759 109.601 598.819 110.023 598.819 110.506C598.819 111.712 598.759 112.617 598.638 113.221Z" fill="#053087"/>
<path d="M558.246 59.0993C558.246 62.4781 558.246 66.2793 558.246 70.5028C558.366 74.7263 558.427 79.1309 558.427 83.7164C558.427 88.1813 558.427 92.6462 558.427 97.1111C558.427 101.455 558.366 105.498 558.246 109.239C558.125 111.049 557.944 113.04 557.703 115.212C557.461 117.263 556.979 119.194 556.254 121.004C555.53 122.814 554.384 124.323 552.815 125.529C551.367 126.615 549.376 127.098 546.842 126.977C543.101 126.736 540.386 125.107 538.697 122.09C537.128 119.073 536.223 114.85 535.982 109.42C535.982 106.644 535.921 103.446 535.8 99.8262C535.8 96.206 535.74 92.5255 535.62 88.7847C535.62 85.0438 535.62 81.4237 535.62 77.9242C535.62 74.304 535.62 71.0458 535.62 68.1497C535.62 66.4603 535.559 64.4089 535.438 61.9954C535.438 59.582 535.499 57.1082 535.62 54.5741C535.74 52.0399 536.042 49.6265 536.525 47.3337C537.007 44.9203 537.792 42.9292 538.878 41.3604C539.722 40.395 540.929 39.671 542.498 39.1883C544.067 38.585 545.696 38.2833 547.385 38.2833C549.195 38.2833 550.885 38.585 552.453 39.1883C554.143 39.7917 555.349 40.6364 556.073 41.7224C556.556 42.4465 556.918 43.4722 557.16 44.7996C557.401 46.127 557.582 47.6354 557.703 49.3248C557.944 50.8935 558.065 52.583 558.065 54.393C558.185 56.0824 558.246 57.6512 558.246 59.0993ZM551.367 22.5355C547.626 23.5009 544.489 23.1389 541.955 21.4495C539.541 19.6394 538.033 16.9846 537.43 13.4851C536.947 10.951 537.128 8.71855 537.973 6.78779C538.817 4.85704 540.084 3.40897 541.774 2.44359C543.463 1.35754 545.394 0.874847 547.566 0.995517C549.738 1.11619 551.91 1.96089 554.082 3.52964C556.134 4.97771 557.582 6.66712 558.427 8.59788C559.392 10.5286 559.694 12.3991 559.332 14.2091C559.09 16.0192 558.306 17.7086 556.979 19.2774C555.651 20.7255 553.781 21.8115 551.367 22.5355Z" fill="#053087"/>
<path d="M496.063 95.844C493.771 94.3959 491.176 93.2495 488.28 92.4048C485.505 91.5601 482.609 90.7757 479.592 90.0517C476.696 89.3277 473.86 88.5433 471.084 87.6986C468.309 86.7332 465.775 85.4058 463.482 83.7164C458.534 79.9755 455.638 75.39 454.794 69.9597C454.069 64.4088 455.276 58.8579 458.414 53.307C460.103 50.4108 462.336 48.0577 465.111 46.2476C467.886 44.3169 470.903 42.8688 474.161 41.9034C477.54 40.8174 480.979 40.214 484.479 40.0933C487.978 39.9727 491.297 40.1537 494.434 40.6364C496.486 40.9984 498.658 41.5414 500.951 42.2654C503.243 42.8688 505.355 43.7135 507.286 44.7996C509.337 45.8856 511.148 47.2733 512.716 48.9628C514.406 50.5315 515.612 52.5226 516.336 54.936C516.819 56.5048 516.879 58.0132 516.517 59.4613C516.276 60.9093 515.673 62.116 514.707 63.0814C513.863 64.0468 512.716 64.7708 511.268 65.2535C509.941 65.7362 508.493 65.8569 506.924 65.6155C505.114 65.2535 503.424 64.7105 501.856 63.9865C500.287 63.2624 498.718 62.4781 497.15 61.6334C495.581 60.7886 493.952 60.0646 492.262 59.4613C490.694 58.8579 489.004 58.5562 487.194 58.5562C484.419 58.4355 482.126 58.9182 480.316 60.0043C478.506 61.0903 477.239 62.4177 476.515 63.9865C475.911 65.5552 475.972 67.2446 476.696 69.0547C477.54 70.8648 479.23 72.4335 481.764 73.7609C484.057 74.9676 486.591 75.933 489.366 76.6571C492.142 77.3811 494.857 78.1051 497.512 78.8292C500.287 79.5532 502.942 80.3979 505.476 81.3633C508.131 82.3287 510.484 83.6561 512.535 85.3455C516.517 88.6036 518.931 92.4048 519.776 96.749C520.741 101.093 520.5 105.377 519.052 109.601C517.603 113.824 515.069 117.565 511.449 120.823C507.95 124.081 503.787 126.253 498.96 127.339C495.46 128.063 491.659 128.426 487.556 128.426C483.574 128.426 479.592 128.003 475.61 127.158C471.748 126.314 468.007 124.986 464.387 123.176C460.887 121.366 457.931 119.073 455.518 116.298C453.828 114.367 452.923 112.195 452.802 109.782C452.802 107.248 453.285 105.075 454.251 103.265C455.337 101.335 456.845 100.007 458.776 99.2831C460.706 98.5591 462.879 98.9814 465.292 100.55C467.223 101.878 469.516 103.205 472.17 104.532C474.825 105.739 477.48 106.704 480.135 107.429C482.79 108.153 485.324 108.515 487.737 108.515C490.271 108.515 492.443 107.972 494.253 106.885C496.908 105.196 498.296 103.265 498.417 101.093C498.537 98.8004 497.753 97.0507 496.063 95.844Z" fill="#053087"/>
<path d="M369.517 51.4969C373.137 49.6868 376.938 48.4197 380.921 47.6957C384.903 46.851 388.825 46.67 392.686 47.1527C396.668 47.5147 400.47 48.5404 404.09 50.2298C407.71 51.7986 411.089 54.0913 414.226 57.1082C417.364 60.2456 419.777 63.6848 421.467 67.4256C423.156 71.1665 424.363 75.3297 425.087 79.9152C425.569 83.0527 426.354 85.9489 427.44 88.6036C428.526 91.2584 429.672 93.9132 430.879 96.568C432.206 99.2228 433.413 101.878 434.499 104.532C435.706 107.187 436.671 109.963 437.395 112.859C437.999 115.634 437.757 118.349 436.671 121.004C435.706 123.538 433.654 125.107 430.517 125.71C428.707 126.072 426.957 125.952 425.268 125.348C423.699 124.624 422.251 123.659 420.924 122.452C419.596 121.125 418.389 119.737 417.303 118.289C416.338 116.72 415.433 115.272 414.588 113.945C411.813 117.565 408.796 120.401 405.538 122.452C402.28 124.383 398.358 125.65 393.772 126.253C389.911 126.736 386.23 126.857 382.731 126.615C379.231 126.374 375.49 125.71 371.508 124.624C366.319 123.297 362.035 121.004 358.657 117.746C355.398 114.367 352.864 110.506 351.054 106.161C349.365 101.697 348.46 96.93 348.339 91.8618C348.218 86.7936 348.822 81.7857 350.149 76.8381C351.839 70.3218 354.373 65.0122 357.752 60.9093C361.13 56.8065 365.052 53.669 369.517 51.4969ZM374.042 72.6749C372.353 74.3643 371.026 76.3554 370.06 78.6482C369.095 80.941 368.491 83.3544 368.25 85.8885C368.129 88.4226 368.371 90.9568 368.974 93.4909C369.577 96.025 370.543 98.2574 371.87 100.188C373.077 101.878 375.128 103.326 378.025 104.532C380.921 105.618 383.937 106.282 387.075 106.523C390.695 106.765 393.833 105.799 396.487 103.627C399.263 101.455 401.314 98.7401 402.642 95.482C404.09 92.1032 404.753 88.5433 404.633 84.8025C404.512 80.941 403.486 77.4415 401.556 74.304C400.108 72.0112 398.177 70.3218 395.763 69.2357C393.471 68.1497 390.997 67.6067 388.342 67.6067C385.687 67.486 383.032 67.9083 380.378 68.8737C377.844 69.7184 375.732 70.9855 374.042 72.6749Z" fill="#053087"/>
<path d="M259.608 63.6245C259.608 62.1764 259.608 60.5473 259.608 58.7373C259.608 56.8065 259.668 54.8757 259.789 52.945C259.91 50.8936 260.091 48.9628 260.332 47.1527C260.694 45.222 261.177 43.5325 261.78 42.0845C262.745 39.9124 264.254 38.4643 266.305 37.7403C268.357 36.8956 270.589 36.5335 273.002 36.6542C275.537 36.6542 277.528 37.0766 278.976 37.9213C280.424 38.766 281.51 39.9124 282.234 41.3604C282.958 42.6878 283.38 44.2566 283.501 46.0667C283.742 47.7561 283.863 49.5662 283.863 51.4969C284.949 49.5662 286.397 47.9974 288.207 46.7907C290.138 45.584 292.069 44.6186 293.999 43.8946C295.93 43.1705 297.68 42.6878 299.249 42.4465C300.817 42.0845 301.722 41.9035 301.964 41.9035C304.981 41.6621 307.696 41.6018 310.109 41.7225C312.643 41.8431 315.419 42.3862 318.436 43.3515C320.366 44.0756 322.357 45.1013 324.409 46.4287C326.46 47.6354 328.27 49.0835 329.839 50.7729C331.408 52.4623 332.434 54.3327 332.916 56.3841C333.52 58.3149 333.278 60.3663 332.192 62.5384C330.503 65.5552 328.632 67.0637 326.581 67.0637C324.53 66.943 322.297 66.581 319.884 65.9776C318.556 65.7363 316.988 65.1932 315.177 64.3485C313.367 63.5038 311.799 62.9608 310.471 62.7194C306.368 62.1161 302.748 62.4178 299.611 63.6245C296.473 64.8312 293.758 66.2793 291.465 67.9687C288.811 70.0201 286.518 72.3732 284.587 75.028V101.093C284.587 104.351 284.527 107.73 284.406 111.23C284.406 114.729 283.923 117.927 282.958 120.823C282.113 123.599 280.605 125.891 278.433 127.702C276.381 129.391 273.364 130.115 269.382 129.874C267.21 129.753 265.279 128.727 263.59 126.796C261.901 124.745 260.875 122.754 260.513 120.823C260.272 119.013 260.091 116.841 259.97 114.307C259.849 111.773 259.728 109.118 259.608 106.343C259.608 103.567 259.608 100.792 259.608 98.0161C259.608 95.12 259.608 92.4652 259.608 90.0517V63.6245Z" fill="#053087"/>
<path d="M227.317 60.9094C230.817 63.2022 233.773 65.9173 236.187 69.0548C238.721 72.0716 240.712 75.8124 242.16 80.2773C243.729 85.2249 244.513 90.2328 244.513 95.301C244.634 100.249 243.729 104.894 241.798 109.239C239.988 113.462 237.031 117.203 232.929 120.461C228.946 123.599 223.697 125.831 217.181 127.159C213.681 128.003 209.579 128.667 204.872 129.15C200.166 129.632 195.943 129.874 192.202 129.874C187.495 129.994 182.608 129.994 177.54 129.874C172.592 129.874 167.766 129.391 163.059 128.426C161.008 127.822 159.499 126.796 158.534 125.348C157.689 123.78 157.086 122.03 156.724 120.099C156.241 119.013 156 117.927 156 116.841V14.0282C156 10.6493 156.664 8.05488 157.991 6.2448C159.439 4.31404 161.31 2.92631 163.602 2.0816C165.895 1.11622 168.49 0.573197 171.386 0.452526C174.282 0.211178 177.299 0.0905031 180.436 0.0905031C182.85 0.0905031 185.263 0.0905031 187.676 0.0905031C190.211 -0.0301677 192.745 -0.0301677 195.279 0.0905031C199.261 0.211174 203.364 0.57319 207.587 1.17655C211.932 1.65924 216.035 2.62462 219.896 4.07269C221.706 4.67605 223.637 5.52076 225.688 6.60681C227.74 7.57219 229.369 8.77892 230.576 10.227C234.437 13.7265 237.273 17.8293 239.083 22.5356C241.014 27.1211 241.858 31.8273 241.617 36.6542C241.376 41.3605 240.048 45.8857 237.635 50.2299C235.342 54.5741 231.903 58.1339 227.317 60.9094ZM195.641 108.877C199.382 108.635 203.183 108.213 207.044 107.61C210.906 107.006 213.561 105.86 215.009 104.17C216.578 102.24 217.664 100.007 218.267 97.4731C218.991 94.8183 219.172 92.1635 218.81 89.5087C218.569 86.7333 217.784 84.1388 216.457 81.7254C215.25 79.1912 213.621 77.2001 211.57 75.7521C208.794 73.58 205.596 72.1922 201.976 71.5889C198.356 70.8648 194.796 70.5028 191.297 70.5028C189.607 70.5028 188.039 70.5632 186.59 70.6838C185.263 70.6838 184.056 70.8649 182.97 71.2269C182.005 71.4682 181.281 72.0112 180.798 72.8559C180.315 73.7007 180.074 74.9677 180.074 76.6571C180.315 79.7946 180.315 82.9321 180.074 86.0696C179.833 89.207 179.712 92.2239 179.712 95.12C179.712 96.8094 179.652 98.6798 179.531 100.731C179.531 102.662 180.195 104.291 181.522 105.618C182.85 106.946 184.78 107.851 187.314 108.334C189.849 108.816 192.624 108.997 195.641 108.877ZM199.261 21.9925C195.52 21.8719 192.383 21.8115 189.849 21.8115C187.435 21.6909 185.504 21.8719 184.056 22.3546C182.729 22.7166 181.764 23.6216 181.16 25.0697C180.677 26.3971 180.496 28.4485 180.617 31.224C180.617 33.5168 180.557 35.8095 180.436 38.1023C180.436 40.2744 180.436 42.4465 180.436 44.6186C180.436 47.0321 181.221 48.8421 182.789 50.0489C184.358 51.1349 186.289 51.7986 188.582 52.04C190.995 52.2813 193.469 52.2813 196.003 52.04C198.658 51.7986 200.95 51.4969 202.881 51.1349C207.225 50.4109 210.544 48.9628 212.837 46.7907C215.25 44.4979 216.638 41.1795 217 36.8352C217.483 31.405 216.034 27.6641 212.656 25.6127C209.398 23.4406 204.933 22.2339 199.261 21.9925Z" fill="#053087"/>
<path fill-rule="evenodd" clip-rule="evenodd" d="M61.11 71.1623C59.6147 70.203 59.6454 68.6281 61.11 67.6885L110.292 36.1375C111.788 35.1782 114.243 35.1979 115.707 36.1375L164.89 67.6885C166.385 68.6478 166.355 70.2228 164.89 71.1623L115.707 102.713C114.212 103.673 111.757 103.653 110.292 102.713L61.11 71.1623Z" fill="#FDD216"/>
<path d="M1152.92 104.353C1154.32 104.004 1155.71 103.772 1157.11 103.655C1158.62 103.539 1159.95 103.714 1161.12 104.178C1162.4 104.643 1163.44 105.457 1164.25 106.618C1165.07 107.664 1165.47 109.175 1165.47 111.15C1165.47 112.545 1165.13 113.881 1164.43 115.159C1163.73 116.437 1162.86 117.599 1161.81 118.645C1160.77 119.691 1159.61 120.62 1158.33 121.434C1157.05 122.131 1155.83 122.712 1154.67 123.177C1151.3 124.687 1147.41 125.849 1142.99 126.662C1138.69 127.476 1134.22 127.766 1129.57 127.534C1123.29 127.301 1117.25 126.081 1111.44 123.874C1105.75 121.55 1101.28 117.773 1098.02 112.545C1095 107.432 1093.2 101.738 1092.62 95.4636C1092.04 89.189 1092.33 83.2629 1093.49 77.6855C1094.77 70.9461 1096.92 65.4848 1099.94 61.3018C1103.08 57.0025 1106.79 53.5747 1111.09 51.0183C1116.32 47.9972 1122.19 46.4286 1128.7 46.3124C1135.2 46.1962 1141.42 47.4743 1147.35 50.1469C1151.3 51.8898 1154.84 54.2719 1157.98 57.293C1161.12 60.1979 1163.5 63.7419 1165.13 67.925C1165.59 68.9707 1165.94 70.2489 1166.17 71.7595C1166.52 73.27 1166.75 74.8968 1166.87 76.6397C1166.98 78.2665 1166.98 79.8932 1166.87 81.52C1166.75 83.1467 1166.46 84.5992 1166 85.8774C1165.3 87.9689 1164.43 89.5957 1163.38 90.7576C1162.34 91.9196 1161 92.7911 1159.37 93.3721C1157.75 93.953 1155.77 94.3597 1153.45 94.5921C1151.24 94.7083 1148.57 94.8245 1145.43 94.9407C1142.64 95.0569 1140.03 95.115 1137.59 95.115C1135.15 95.115 1132.65 95.115 1130.09 95.115C1127.54 94.9988 1124.86 94.9407 1122.07 94.9407C1119.4 94.8245 1116.38 94.7083 1113.01 94.5921C1112.66 96.916 1112.95 98.9495 1113.88 100.692C1114.93 102.319 1116.32 103.714 1118.07 104.876C1119.81 105.921 1121.78 106.735 1123.99 107.316C1126.2 107.897 1128.35 108.245 1130.44 108.361C1134.39 108.594 1138.17 108.303 1141.77 107.49C1145.37 106.56 1149.09 105.515 1152.92 104.353ZM1145.43 70.5394C1143.22 67.9831 1140.9 66.1239 1138.46 64.962C1136.6 64.1486 1134.62 63.8 1132.53 63.9162C1130.56 63.9162 1128.64 64.2067 1126.78 64.7877C1123.41 65.601 1120.56 67.344 1118.24 70.0165C1118.01 70.2489 1117.6 70.8299 1117.02 71.7595C1116.44 72.5728 1115.86 73.4443 1115.28 74.3739C1114.81 75.3035 1114.46 76.1749 1114.23 76.9883C1114 77.8017 1114.12 78.2084 1114.58 78.2084H1148.74C1148.63 76.5816 1148.34 75.2454 1147.87 74.1996C1147.41 73.0376 1146.59 71.8176 1145.43 70.5394Z" fill="#019C39"/>
<path d="M1084.83 51.3669C1085.76 53.5746 1085.82 56.0148 1085.01 58.6873C1084.31 61.3598 1082.97 63.1028 1081 63.9161C1079.95 64.3809 1078.56 64.7876 1076.81 65.1362C1075.07 65.3686 1073.15 65.601 1071.06 65.8334C1069.09 66.0658 1067.11 66.2401 1065.14 66.3563C1063.16 66.4725 1061.48 66.5306 1060.08 66.5306C1060.2 70.0165 1060.31 73.6186 1060.43 77.3369C1060.55 80.939 1060.66 84.4829 1060.78 87.9688C1060.9 91.4548 1060.95 94.8245 1060.95 98.078C1060.95 101.215 1060.9 104.062 1060.78 106.618C1060.78 108.361 1060.78 110.395 1060.78 112.719C1060.78 114.926 1060.6 117.076 1060.26 119.168C1060.02 121.259 1059.62 123.118 1059.04 124.745C1058.45 126.256 1057.58 127.243 1056.42 127.708C1052.82 129.219 1049.51 129.625 1046.49 128.928C1043.58 128.347 1041.49 127.127 1040.21 125.268C1039.28 123.757 1038.59 122.014 1038.12 120.039C1037.66 117.948 1037.31 115.856 1037.07 113.765C1036.96 111.557 1036.9 109.465 1036.9 107.49C1037.02 105.398 1037.07 103.597 1037.07 102.087C1037.19 97.2065 1037.25 91.6871 1037.25 85.5287C1037.37 79.2541 1037.42 72.9795 1037.42 66.7049H1034.81C1033.41 66.7049 1031.61 66.7049 1029.41 66.7049C1027.31 66.5887 1025.16 66.4144 1022.96 66.182C1020.87 65.8334 1018.89 65.4267 1017.03 64.9619C1015.17 64.3809 1013.84 63.5675 1013.02 62.5218C1011.74 61.0112 1010.93 59.3845 1010.58 57.6415C1010.35 55.8986 1010.47 54.2718 1010.93 52.7612C1011.51 51.1345 1012.38 49.7401 1013.54 48.5782C1014.71 47.3 1016.04 46.4866 1017.55 46.138C1019.65 45.557 1022.61 45.2666 1026.44 45.2666C1030.28 45.1504 1033.88 45.1504 1037.25 45.2666C1037.13 44.1046 1037.07 43.0007 1037.07 41.9549C1037.07 40.793 1037.02 39.6891 1036.9 38.6433C1036.78 37.249 1036.73 35.506 1036.73 33.4145C1036.73 31.2068 1036.84 29.0571 1037.07 26.9656C1037.42 24.7578 1037.95 22.7244 1038.64 20.8652C1039.34 18.8899 1040.33 17.3793 1041.61 16.3336C1043.35 14.9392 1045.09 14.1839 1046.84 14.0677C1048.69 13.8353 1050.38 14.0677 1051.89 14.7649C1053.52 15.4621 1054.85 16.5079 1055.9 17.9022C1057.06 19.1804 1057.87 20.6328 1058.34 22.2596C1058.69 23.654 1058.98 25.3388 1059.21 27.3142C1059.44 29.1733 1059.56 31.1487 1059.56 33.2402C1059.68 35.3317 1059.73 37.4233 1059.73 39.5148C1059.73 41.6064 1059.73 43.5236 1059.73 45.2666H1061.48C1063.22 45.2666 1065.25 45.2085 1067.58 45.0923C1069.9 44.9761 1072.17 45.0342 1074.37 45.2666C1076.7 45.499 1078.79 46.0799 1080.65 47.0095C1082.51 47.8229 1083.9 49.2753 1084.83 51.3669Z" fill="#019C39"/>
<path d="M930.753 66.5306C930.753 65.1363 930.753 63.5676 930.753 61.8247C930.753 59.9655 930.811 58.1064 930.928 56.2472C931.044 54.2719 931.218 52.4127 931.451 50.6698C931.799 48.8106 932.264 47.1839 932.845 45.7895C933.774 43.698 935.227 42.3036 937.202 41.6064C939.178 40.7931 941.327 40.4445 943.651 40.5607C946.091 40.5607 948.009 40.9674 949.403 41.7807C950.797 42.5941 951.843 43.698 952.54 45.0923C953.237 46.3705 953.644 47.8811 953.76 49.624C953.993 51.2508 954.109 52.9937 954.109 54.8529C955.155 52.9937 956.549 51.4832 958.292 50.3212C960.151 49.1592 962.01 48.2297 963.869 47.5325C965.729 46.8353 967.413 46.3705 968.924 46.1381C970.435 45.7895 971.306 45.6152 971.538 45.6152C974.443 45.3828 977.058 45.3247 979.382 45.4409C981.822 45.5571 984.494 46.08 987.399 47.0096C989.258 47.7068 991.176 48.6944 993.151 49.9726C995.126 51.1346 996.869 52.5289 998.38 54.1557C999.89 55.7824 1000.88 57.5835 1001.34 59.5588C1001.92 61.418 1001.69 63.3933 1000.65 65.4849C999.019 68.3898 997.218 69.8422 995.243 69.8422C993.267 69.726 991.118 69.3775 988.794 68.7965C987.515 68.5641 986.005 68.0412 984.262 67.2278C982.519 66.4144 981.008 65.8915 979.73 65.6592C975.78 65.0782 972.294 65.3687 969.273 66.5306C966.251 67.6926 963.637 69.087 961.429 70.7137C958.873 72.6891 956.665 74.9549 954.806 77.5112V102.61C954.806 105.747 954.748 109.001 954.632 112.37C954.632 115.74 954.167 118.819 953.237 121.608C952.424 124.28 950.972 126.488 948.88 128.231C946.905 129.858 944 130.555 940.165 130.323C938.074 130.206 936.215 129.219 934.588 127.36C932.961 125.384 931.973 123.467 931.625 121.608C931.392 119.865 931.218 117.773 931.102 115.333C930.986 112.893 930.87 110.337 930.753 107.664C930.753 104.992 930.753 102.319 930.753 99.6467C930.753 96.858 930.753 94.3016 930.753 91.9777V66.5306Z" fill="#019C39"/>
<path d="M856.384 49.4496C860.218 47.5905 864.227 46.2542 868.41 45.4408C872.593 44.6275 876.718 44.4532 880.785 44.918C884.968 45.3827 888.977 46.4866 892.811 48.2296C896.762 49.9725 900.364 52.4126 903.618 55.5499C906.29 58.2225 908.614 61.476 910.589 65.3105C912.565 69.0288 914.017 72.689 914.947 76.2911C916.922 82.6819 917.213 89.1308 915.818 95.6378C914.424 102.145 912.042 108.187 908.672 113.765C907.045 116.321 905.012 118.645 902.572 120.736C900.248 122.712 897.75 124.338 895.077 125.617C891.591 127.243 887.815 128.347 883.748 128.928C879.681 129.625 875.73 129.8 871.896 129.451C864.924 129.102 858.766 127.36 853.421 124.222C848.192 121.085 843.951 117.076 840.697 112.196C837.56 107.316 835.468 101.796 834.422 95.6378C833.493 89.3632 833.9 82.9724 835.643 76.4654C837.502 69.4936 840.174 63.858 843.66 59.5587C847.262 55.1433 851.503 51.7736 856.384 49.4496ZM861.613 72.8052C859.87 74.4319 858.533 76.4654 857.604 78.9055C856.674 81.3456 856.093 83.902 855.861 86.5745C855.628 89.1308 855.803 91.7452 856.384 94.4178C857.081 96.9741 858.127 99.298 859.521 101.39C860.683 103.133 862.774 104.585 865.796 105.747C868.817 106.909 871.954 107.606 875.208 107.838C878.926 108.071 882.179 107.083 884.968 104.875C887.757 102.552 889.848 99.7047 891.243 96.335C892.753 92.9653 893.45 89.3051 893.334 85.3544C893.218 81.4037 892.172 77.8016 890.197 74.5481C888.803 72.2242 886.827 70.5393 884.271 69.4936C881.831 68.3316 879.216 67.7506 876.428 67.7506C873.755 67.6344 871.083 68.0411 868.41 68.9707C865.738 69.784 863.472 71.0622 861.613 72.8052Z" fill="#019C39"/>
<path d="M819.782 114.985C819.665 116.96 819.375 119.051 818.91 121.259C818.562 123.467 817.458 125.268 815.599 126.662C814.204 127.824 812.636 128.522 810.893 128.754C809.15 128.986 807.407 128.87 805.664 128.405C804.037 128.057 802.468 127.476 800.958 126.662C799.447 125.733 798.227 124.629 797.298 123.351C793.347 118.47 789.687 113.474 786.317 108.361C783.064 103.133 779.752 97.9037 776.382 92.6748L761.741 70.5393C759.766 67.402 757.675 63.9161 755.467 60.0816C753.259 56.131 750.993 52.4708 748.669 49.101L748.146 115.682V117.25C748.146 119.11 747.798 120.969 747.101 122.828C746.52 124.571 745.474 126.081 743.963 127.36C742.801 128.289 741.291 128.928 739.432 129.277C736.527 129.858 734.087 129.683 732.111 128.754C730.252 127.824 728.742 126.546 727.58 124.919C726.534 123.293 725.779 121.434 725.314 119.342C724.965 117.134 724.907 114.985 725.139 112.893V109.93L725.488 96.335L725.662 71.0622C725.779 67.3439 725.837 63.5675 725.837 59.7331C725.837 55.7824 725.837 51.7736 725.837 47.7067C725.72 42.7102 725.72 37.4233 725.837 31.8458C726.069 26.2684 726.301 21.0395 726.534 16.1593C726.766 13.4868 727.405 11.2209 728.451 9.36177C728.916 7.73501 730.136 6.34065 732.111 5.17869C733.389 4.36531 735.016 3.84242 736.992 3.61003C739.083 3.37764 740.884 3.43574 742.395 3.78432C742.976 4.01672 743.557 4.30721 744.138 4.6558C744.719 4.88819 745.3 5.17869 745.881 5.52727C746.462 5.99206 746.984 6.45685 747.449 6.92164C748.03 7.38642 748.553 7.90931 749.018 8.49029C749.599 9.07128 750.122 9.71036 750.587 10.4075C751.051 10.9885 751.516 11.5695 751.981 12.1505C752.329 12.8477 752.678 13.4868 753.027 14.0677C753.375 14.6487 753.782 15.2297 754.247 15.8107L756.164 18.5994L796.426 82.0428V70.5393C796.426 66.8211 796.368 63.0447 796.252 59.2102C796.252 55.2595 796.194 51.1926 796.078 47.0095C796.078 42.1292 796.078 36.9004 796.078 31.3229C796.194 25.7455 796.368 20.5167 796.6 15.6364C796.6 13.661 797.181 11.3952 798.343 8.83888C798.924 7.32833 799.912 6.10826 801.306 5.17869C802.701 4.24911 804.269 3.61003 806.012 3.26144C807.755 2.91285 809.498 2.91285 811.241 3.26144C812.984 3.61003 814.495 4.30721 815.773 5.35298C816.121 5.70157 816.47 6.10826 816.819 6.57305C817.167 7.03784 817.458 7.56072 817.69 8.14171C818.271 9.65226 818.62 10.9885 818.736 12.1505C819.084 13.7772 819.259 15.2297 819.259 16.5079C819.259 31.0325 819.259 45.8475 819.259 60.9531C819.375 76.0587 819.491 90.8738 819.607 105.398C819.607 107.025 819.665 108.652 819.782 110.279C819.898 111.789 819.898 113.358 819.782 114.985Z" fill="#019C39"/>
<path d="M28.6044 61.5L0 111H137L79.2894 14L41.652 78.5L28.6044 61.5Z" fill="#019C39"/>
<path d="M113.5 91.4254C125.926 91.4254 136 81.3518 136 68.9254C136 56.499 125.926 46.4254 113.5 46.4254C101.074 46.4254 91 56.499 91 68.9254C91 81.3518 101.074 91.4254 113.5 91.4254Z" fill="url(#paint0_linear_0_1)"/>
<path d="M675.891 52.0618C677.543 51.2607 679.27 50.685 681.073 50.3345C682.875 49.9841 684.653 49.909 686.405 50.1092C688.207 50.3095 689.934 50.7851 691.587 51.5361C693.289 52.2871 694.841 53.3385 696.243 54.6903C697.394 55.8418 698.396 57.2436 699.247 58.8958C700.098 60.4979 700.724 62.075 701.124 63.627C701.975 66.3806 702.1 69.1593 701.5 71.963C700.899 74.7667 699.873 77.3701 698.421 79.7732C697.72 80.8747 696.844 81.876 695.792 82.7772C694.791 83.6283 693.714 84.3292 692.563 84.88C691.061 85.5809 689.434 86.0565 687.682 86.3068C685.929 86.6072 684.227 86.6823 682.575 86.5321C679.571 86.3819 676.917 85.6309 674.614 84.2792C672.361 82.9274 670.534 81.2001 669.132 79.0973C667.78 76.9946 666.879 74.6165 666.429 71.963C666.028 69.2594 666.203 66.5058 666.954 63.7021C667.755 60.6982 668.907 58.27 670.409 56.4175C671.961 54.515 673.788 53.0631 675.891 52.0618ZM678.144 62.125C677.393 62.826 676.817 63.7021 676.417 64.7535C676.016 65.8049 675.766 66.9063 675.666 68.0578C675.566 69.1593 675.641 70.2858 675.891 71.4373C676.191 72.5387 676.642 73.54 677.243 74.4412C677.743 75.1922 678.645 75.818 679.946 76.3187C681.248 76.8194 682.6 77.1197 684.002 77.2199C685.604 77.32 687.006 76.8944 688.207 75.9432C689.409 74.9419 690.31 73.7153 690.911 72.2634C691.562 70.8115 691.862 69.2344 691.812 67.5321C691.762 65.8299 691.311 64.2779 690.46 62.876C689.859 61.8747 689.008 61.1488 687.907 60.6982C686.855 60.1975 685.729 59.9472 684.527 59.9472C683.376 59.8971 682.224 60.0723 681.073 60.4729C679.921 60.8233 678.945 61.374 678.144 62.125Z" fill="#FF0000"/>
<path d="M631.793 54.3899C633.295 53.6389 634.872 53.1133 636.524 52.8129C638.176 52.4624 639.803 52.3873 641.405 52.5876C643.058 52.7378 644.635 53.1633 646.137 53.8642C647.639 54.5151 649.04 55.4664 650.342 56.718C651.644 58.0197 652.645 59.4466 653.346 60.9986C654.047 62.5507 654.548 64.2779 654.848 66.1804C655.048 67.4822 655.374 68.6837 655.824 69.7852C656.275 70.8866 656.751 71.9881 657.251 73.0895C657.802 74.191 658.303 75.2924 658.753 76.3939C659.254 77.4953 659.654 78.6468 659.955 79.8484C660.205 80.9999 660.105 82.1264 659.654 83.2279C659.254 84.2792 658.403 84.9301 657.101 85.1804C656.35 85.3306 655.624 85.2806 654.923 85.0302C654.272 84.7298 653.672 84.3293 653.121 83.8286C652.57 83.2779 652.069 82.7022 651.619 82.1014C651.218 81.4505 650.843 80.8497 650.492 80.299C649.341 81.801 648.089 82.9775 646.737 83.8286C645.386 84.6297 643.759 85.1554 641.856 85.4057C640.254 85.606 638.727 85.656 637.275 85.5559C635.823 85.4558 634.271 85.1804 632.619 84.7298C630.466 84.1791 628.689 83.2279 627.287 81.8761C625.935 80.4742 624.884 78.8721 624.133 77.0698C623.432 75.2173 623.056 73.2397 623.006 71.137C622.956 69.0342 623.207 66.9565 623.757 64.9038C624.458 62.2002 625.51 59.9973 626.911 58.2951C628.313 56.5928 629.94 55.2911 631.793 54.3899ZM633.67 63.1765C632.969 63.8774 632.419 64.7035 632.018 65.6547C631.618 66.606 631.367 67.6073 631.267 68.6587C631.217 69.7101 631.317 70.7615 631.568 71.8128C631.818 72.8642 632.218 73.7904 632.769 74.5915C633.27 75.2924 634.121 75.8932 635.322 76.3939C636.524 76.8445 637.776 77.1198 639.077 77.22C640.579 77.3201 641.881 76.9196 642.983 76.0184C644.134 75.1172 644.985 73.9907 645.536 72.6389C646.137 71.2371 646.412 69.7601 646.362 68.2081C646.312 66.606 645.886 65.1541 645.085 63.8524C644.484 62.9011 643.683 62.2002 642.682 61.7496C641.731 61.299 640.705 61.0737 639.603 61.0737C638.502 61.0237 637.4 61.1989 636.299 61.5994C635.247 61.9499 634.371 62.4756 633.67 63.1765Z" fill="#FF0000"/>
<defs>
<linearGradient id="paint0_linear_0_1" x1="2341" y1="46.4254" x2="2341" y2="4546.43" gradientUnits="userSpaceOnUse">
<stop stop-color="#053087"/>
<stop offset="1" stop-color="#012877"/>
</linearGradient>
</defs>
</svg>
